<?xml version="1.0" encoding="UTF-8" standalone="no"?>
<!-- Created with Inkscape (http://www.inkscape.org/) -->

<svg
   width="1152.4203"
   height="142.39667"
   viewBox="0 0 304.9112 37.675785"
   version="1.1"
   id="svg1"
   inkscape:version="1.3.2 (091e20e, 2023-11-25, custom)"
   sodipodi:docname="drawing.svg"
   xmlns:inkscape="http://www.inkscape.org/namespaces/inkscape"
   xmlns:sodipodi="http://sodipodi.sourceforge.net/DTD/sodipodi-0.dtd"
   xmlns="http://www.w3.org/2000/svg"
   xmlns:svg="http://www.w3.org/2000/svg">
  <sodipodi:namedview
     id="namedview1"
     pagecolor="#4f4f4f"
     bordercolor="#eeeeee"
     borderopacity="1"
     inkscape:showpageshadow="0"
     inkscape:pageopacity="0"
     inkscape:pagecheckerboard="0"
     inkscape:deskcolor="#3d3d3d"
     inkscape:document-units="px"
     inkscape:zoom="0.48413292"
     inkscape:cx="571.12415"
     inkscape:cy="436.8635"
     inkscape:window-width="1366"
     inkscape:window-height="705"
     inkscape:window-x="-8"
     inkscape:window-y="-8"
     inkscape:window-maximized="1"
     inkscape:current-layer="layer1" />
  <defs
     id="defs1" />
  <g
     inkscape:label="Layer 1"
     inkscape:groupmode="layer"
     id="layer1"
     transform="translate(-17.970835,-139.26077)">
    <path
       style="fill:#ffd369;fill-opacity:1;stroke:none;stroke-width:0.979682;stroke-dasharray:none;stroke-opacity:1"
       d="m 24.32311,139.26076 c -0.52495,0.36151 -1.050254,0.72208 -1.575699,1.08239 -0.525444,0.36027 -1.051031,0.72029 -1.576545,1.08073 0.525351,0.36071 1.050904,0.72104 1.576764,1.08029 0.525861,0.35925 1.052029,0.71741 1.578608,1.07378 -0.0021,-0.71595 -0.0027,-1.43376 -0.0028,-2.15334 -10e-5,-0.71955 2.05e-4,-1.44087 -3.51e-4,-2.16385 z m -3.199522,2.16311 c -0.525347,-0.36069 -1.050492,-0.72176 -1.575537,-1.0825 -0.525045,-0.36077 -1.049991,-0.7212 -1.574941,-1.08061 -5.56e-4,0.71878 -0.0017,1.43961 -0.0021,2.16238 -4.32e-4,0.72281 -1.69e-4,1.44757 0.002,2.17417 0.524381,-0.3649 1.049258,-0.72802 1.574419,-1.09004 0.525161,-0.36201 1.050607,-0.72292 1.576123,-1.0834 z m 3.20265,2.15408 c -0.524405,0.35957 -1.048386,0.72 -1.571733,1.08197 -0.523345,0.36193 -1.046056,0.7254 -1.567917,1.09109 0.528955,0.35537 1.058602,0.70847 1.589043,1.0586 0.530443,0.35012 1.061682,0.69726 1.59382,1.04072 -0.01392,-0.70808 -0.02363,-1.41823 -0.03042,-2.13034 -0.0068,-0.71208 -0.01063,-1.42613 -0.0128,-2.14204 z m -3.186925,2.17352 c -0.528957,-0.35541 -1.057221,-0.71309 -1.584897,-1.07234 -0.527677,-0.35927 -1.054765,-0.72012 -1.581369,-1.08182 0.0022,0.72658 0.0064,1.455 0.01382,2.18518 0.0074,0.73021 0.01805,1.46217 0.03318,2.19578 0.517615,-0.37739 1.036502,-0.7512 1.556451,-1.1221 0.519949,-0.37091 1.040959,-0.73891 1.562818,-1.1047 z m 3.230138,2.09886 c -0.51822,0.36462 -1.035239,0.7319 -1.550846,1.1025 -0.515606,0.37058 -1.0298,0.74448 -1.542369,1.12239 0.537046,0.34227 1.075272,0.68037 1.614782,1.01359 0.539511,0.33323 1.080307,0.66158 1.622491,0.98435 -0.03579,-0.69943 -0.06484,-1.40112 -0.08843,-2.10497 -0.02359,-0.70382 -0.0417,-1.40981 -0.05562,-2.11786 z m -3.140435,2.2265 c -0.537051,-0.34236 -1.072922,-0.68888 -1.607716,-1.03886 -0.534794,-0.35001 -1.068511,-0.70348 -1.601256,-1.0597 0.01513,0.73357 0.03475,1.4688 0.06013,2.20559 0.02538,0.73681 0.05652,1.47518 0.09469,2.215 0.505207,-0.39685 1.012465,-0.78832 1.521561,-1.1751 0.509097,-0.38678 1.020032,-0.76887 1.532592,-1.14693 z m 3.284493,1.99633 c -0.506395,0.37665 -1.010811,0.75775 -1.513038,1.14398 -0.502227,0.38619 -1.002265,0.77751 -1.4999,1.17464 0.549623,0.32138 1.100915,0.6367 1.65398,0.94525 0.439047,0.24495 0.879211,0.48562 1.320545,0.72169 0.116144,0.0625 0.232427,0.12482 0.348837,0.1869 -0.0084,-0.0724 -0.01693,-0.14486 -0.02543,-0.21738 -0.0591,-0.61931 -0.11085,-1.24059 -0.156164,-1.86378 -0.05052,-0.69477 -0.09304,-1.3919 -0.12883,-2.0913 z m -3.060054,2.32203 c -0.549631,-0.32154 -1.097593,-0.64912 -1.64399,-0.98206 -0.546398,-0.33297 -1.091232,-0.67129 -1.634603,-1.01427 0.03817,0.7398 0.08335,1.48104 0.136825,2.22364 0.04797,0.66608 0.102602,1.33325 0.16482,2.00144 0.0055,0.0754 0.01102,0.15106 0.01672,0.22683 0.102246,-0.0861 0.204485,-0.17185 0.306685,-0.2573 0.387647,-0.33371 0.777048,-0.66298 1.168098,-0.98817 0.492603,-0.40964 0.987823,-0.81278 1.485445,-1.21011 z m 3.370478,1.85043 c -0.482602,0.40122 -0.968874,0.80498 -1.455301,1.21465 -0.486431,0.40964 -0.973018,0.82519 -1.456246,1.25003 0.57035,0.2979 1.143738,0.58637 1.718468,0.86084 0.57473,0.27447 1.1508,0.53494 1.726516,0.77684 -0.105445,-0.65879 -0.197776,-1.33323 -0.284261,-2.01856 -0.08648,-0.6853 -0.167118,-1.38149 -0.249176,-2.0838 z m -2.958946,2.47039 c -0.570351,-0.29816 -1.137638,-0.60571 -1.700162,-0.91809 -0.562527,-0.31241 -1.120292,-0.62965 -1.671597,-0.94715 0.05534,0.73508 0.123265,1.48537 0.211035,2.24611 0.08777,0.76078 0.195399,1.532 0.330141,2.30891 0.455621,-0.47595 0.921657,-0.93582 1.394592,-1.38299 0.472936,-0.44717 0.952771,-0.88165 1.435991,-1.30679 z m 3.492383,1.63197 c -0.470271,0.41688 -0.933628,0.84451 -1.386557,1.28625 -0.452935,0.44172 -0.895443,0.89755 -1.32401,1.37086 0.595936,0.22916 1.191595,0.43589 1.785279,0.61566 0.593684,0.17976 1.185394,0.33256 1.773431,0.45379 -0.186967,-0.57707 -0.346284,-1.17934 -0.485221,-1.80204 -0.138931,-0.62267 -0.257483,-1.26577 -0.362922,-1.92452 z m -2.756658,2.6681 c -0.596143,-0.22972 -1.192536,-0.48181 -1.787483,-0.75169 -0.594955,-0.26992 -1.188462,-0.55764 -1.778825,-0.8586 0.134735,0.77687 0.296586,1.55942 0.492819,2.34288 0.196241,0.7835 0.426866,1.5679 0.699145,2.34845 0.358414,-0.55757 0.737827,-1.09085 1.134722,-1.60323 0.396896,-0.51239 0.811275,-1.00386 1.239622,-1.47781 z m 3.604801,1.05846 c -0.401071,0.45584 -0.784644,0.93061 -1.147207,1.42771 -0.362573,0.49706 -0.704137,1.01646 -1.021177,1.56154 0.622794,0.099 1.241994,0.16253 1.855905,0.18616 0.609474,0.0234 1.213735,0.007 1.811119,-0.0522 0.0041,-6e-4 0.0081,-9.3e-4 0.01223,-0.002 -9.07e-4,-0.002 -0.0019,-0.003 -0.0027,-0.005 -0.325144,-0.45581 -0.608436,-0.94608 -0.857063,-1.46612 -0.249518,-0.52188 -0.464121,-1.07374 -0.651081,-1.65078 z m -2.210666,3.00932 c -0.623202,-0.0998 -1.249973,-0.23503 -1.878612,-0.40099 -0.628653,-0.16599 -1.259174,-0.36277 -1.889867,-0.58575 0.272267,0.78051 0.586182,1.55717 0.949014,2.3252 0.361537,0.76528 0.77164,1.522 1.2375,2.26544 0.0019,0.003 0.0039,0.006 0.0059,0.008 0.0012,-0.005 0.0024,-0.01 0.0036,-0.0148 0.203316,-0.65722 0.437733,-1.28244 0.699813,-1.87897 0.263987,-0.60087 0.556042,-1.17263 0.872648,-1.71866 z m 3.72153,0.11204 c -0.31255,0.49526 -0.574064,1.02998 -0.784072,1.59659 -0.210026,0.5666 -0.368552,1.16508 -0.475114,1.78788 0.619206,-0.12589 1.212284,-0.30284 1.775525,-0.52422 0.563241,-0.22139 1.096644,-0.48722 1.596496,-0.79087 -0.43573,-0.27327 -0.838318,-0.5849 -1.194788,-0.93108 -0.356455,-0.34616 -0.666795,-0.72687 -0.918047,-1.1383 z m -1.291836,3.41816 c -0.620354,0.12478 -1.266813,0.19845 -1.935667,0.21439 -0.668877,0.0159 -1.360149,-0.0259 -2.070103,-0.13211 0.543523,0.79139 1.15736,1.51396 1.828537,2.16389 0.671206,0.64995 1.399756,1.22727 2.172675,1.7281 -0.104471,-0.6907 -0.156015,-1.37229 -0.1551,-2.0372 9.15e-4,-0.66489 0.05429,-1.31311 0.159658,-1.93707 z m 3.404671,-1.34878 c -0.06412,0.57691 -0.07813,1.17247 -0.04154,1.77911 0.03655,0.60661 0.123704,1.22432 0.261897,1.84552 0.529295,-0.35339 1.020404,-0.74084 1.469616,-1.15573 0.449212,-0.4149 0.856526,-0.85723 1.218232,-1.32039 -0.516392,-0.10449 -1.025593,-0.25499 -1.514629,-0.44769 -0.489014,-0.19269 -0.957865,-0.42757 -1.393576,-0.70082 z m 0.202763,3.66847 c -0.530604,0.35284 -1.099371,0.67155 -1.70259,0.94953 -0.60325,0.27796 -1.240955,0.51518 -1.909402,0.70505 0.772885,0.50081 1.590134,0.92517 2.438772,1.26923 0.848676,0.34407 1.728744,0.60786 2.627227,0.78753 -0.345731,-0.60525 -0.639454,-1.2222 -0.881632,-1.84327 -0.242179,-0.62108 -0.432815,-1.24629 -0.572375,-1.86807 z m 2.705442,-2.51996 c 0.154685,0.56765 0.358574,1.13312 0.612134,1.68886 0.03271,0.0717 0.06625,0.14324 0.10062,0.21461 0.240981,0.48428 0.511171,0.95969 0.80821,1.42574 0.375894,-0.51118 0.71628,-1.03431 1.024042,-1.56714 0.307761,-0.53283 0.582898,-1.07535 0.828293,-1.62534 -0.58917,0.0586 -1.172717,0.0784 -1.747879,0.0537 -0.250452,-0.0107 -0.499314,-0.03 -0.74636,-0.0581 -0.293754,-0.029 -0.587553,-0.0733 -0.87906,-0.13227 z m 1.519398,3.37627 c -0.328291,0.44523 -0.68354,0.88139 -1.067651,1.30698 -0.05823,0.0627 -0.117253,0.12496 -0.177045,0.18685 -0.463436,0.47968 -0.973385,0.93561 -1.526137,1.3612 0.507201,0.10141 1.020272,0.17603 1.536876,0.22315 0.378047,0.0306 0.754623,0.0505 1.1295,0.0606 0.860902,0.0231 1.712846,-0.006 2.553073,-0.083 -0.469304,-0.48247 -0.910389,-0.97886 -1.319683,-1.4884 -0.409293,-0.50954 -0.786795,-1.03224 -1.128933,-1.56731 z m 1.853901,-3.23954 c 0.343775,0.49141 0.720106,0.97093 1.125418,1.43779 0.405283,0.46686 0.839546,0.92105 1.299216,1.36181 0.245337,-0.58775 0.462392,-1.18045 0.654048,-1.77589 0.191656,-0.59545 0.357912,-1.19361 0.501652,-1.79225 -0.600618,0.18974 -1.201136,0.35259 -1.798792,0.48265 -0.59763,0.13006 -1.192398,0.22732 -1.781542,0.28589 z m 2.434279,2.84588 c -0.246112,0.58785 -0.520534,1.17073 -0.826149,1.74638 -0.305649,0.57565 -0.642492,1.14405 -1.013415,1.70299 0.840189,-0.0765 1.668663,-0.19972 2.482656,-0.36389 0.81403,-0.16416 1.613579,-0.36924 2.395888,-0.60931 -0.547724,-0.38373 -1.077216,-0.78246 -1.584904,-1.19542 -0.507687,-0.41296 -0.993571,-0.84013 -1.454076,-1.28075 z m 1.146055,-3.61442 c 0.456879,0.4089 0.936326,0.80484 1.434767,1.18703 0.498413,0.38222 1.015821,0.75069 1.548649,1.10466 0.138159,-0.62459 0.255261,-1.24717 0.35419,-1.8655 0.04537,-0.28356 0.08691,-0.56622 0.124915,-0.84778 0.04453,-0.33352 0.08412,-0.66642 0.119351,-0.99885 -0.159626,0.077 -0.3194,0.15216 -0.479386,0.22545 -0.43226,0.19331 -0.867005,0.37775 -1.303166,0.55104 -0.598033,0.2376 -1.198727,0.45421 -1.79932,0.64395 z m 3.001172,2.33572 c -0.138676,0.62482 -0.298438,1.25163 -0.482169,1.87819 -0.183762,0.62657 -0.391494,1.25288 -0.626078,1.87668 0.782274,-0.24005 1.547309,-0.5151 2.292343,-0.81923 0.543372,-0.22181 1.076105,-0.4591 1.597128,-0.70956 0.193864,-0.0915 0.386265,-0.1841 0.577268,-0.27786 -0.315398,-0.16169 -0.627979,-0.32674 -0.937303,-0.49554 -0.261715,-0.14203 -0.521289,-0.28735 -0.778379,-0.43589 -0.560611,-0.3239 -1.109405,-0.66309 -1.64281,-1.01679 z m 0.5807,-3.75616 c 0.524592,0.32965 1.063056,0.64553 1.61261,0.95005 0.549528,0.30454 1.110144,0.59775 1.679067,0.88206 0.06038,-0.63316 0.108774,-1.2644 0.148754,-1.89472 0.03998,-0.63031 0.07154,-1.25972 0.09826,-1.88917 -0.594118,0.3585 -1.183977,0.70429 -1.772723,1.03153 -0.58872,0.32723 -1.176327,0.63591 -1.765965,0.92025 z m 3.314557,1.87339 c -0.06066,0.63329 -0.13333,1.26854 -0.221586,1.9067 -0.08828,0.63818 -0.192155,1.27927 -0.315179,1.92429 0.705538,-0.34637 1.391982,-0.70785 2.062476,-1.07864 0.670524,-0.3708 1.325095,-0.75092 1.966861,-1.13454 -0.591226,-0.2584 -1.179741,-0.52078 -1.762764,-0.7896 -0.583023,-0.26883 -1.160553,-0.54408 -1.729808,-0.82821 z m 0.224131,-3.82517 c 0.567401,0.27094 1.141779,0.53559 1.72035,0.79639 0.578545,0.26082 1.161284,0.51778 1.745433,0.77335 0.02831,-0.637 0.05468,-1.27377 0.08267,-1.91128 0.02799,-0.63751 0.05761,-1.27578 0.09242,-1.91579 -0.623729,0.3862 -1.23691,0.77127 -1.842688,1.14944 -0.605752,0.37815 -1.204101,0.74939 -1.798192,1.10789 z m 3.49079,1.60989 c -0.02833,0.63701 -0.05865,1.27427 -0.0945,1.91278 -0.03588,0.63853 -0.0773,1.2783 -0.127848,1.92031 0.641737,-0.3836 1.270669,-0.77069 1.88994,-1.15547 0.619299,-0.3848 1.228934,-0.76728 1.832053,-1.14163 -0.578612,-0.25974 -1.161409,-0.51598 -1.745611,-0.77116 -0.584201,-0.25519 -1.169807,-0.50932 -1.754033,-0.76483 z m 0.150089,-3.86722 c 0.588917,0.25382 1.177913,0.50883 1.764206,0.76748 0.586267,0.25866 1.16983,0.52097 1.747909,0.78935 0.04269,-0.63592 0.09349,-1.27328 0.155951,-1.91307 0.01352,-0.13848 0.02759,-0.27709 0.04224,-0.41581 0.05305,-0.50479 0.114248,-1.01229 0.184917,-1.52191 -0.266501,0.14636 -0.530219,0.29525 -0.791092,0.44635 -0.40495,0.22791 -0.804126,0.45888 -1.198238,0.69158 -0.64794,0.38258 -1.282188,0.76986 -1.905889,1.15603 z m 3.536202,1.59751 c -0.04247,0.63579 -0.07687,1.27017 -0.106773,1.9041 -0.02993,0.63397 -0.05537,1.2675 -0.07988,1.9016 0.603093,-0.37435 1.199669,-0.74056 1.792874,-1.09284 0.360818,-0.21427 0.720389,-0.42339 1.07942,-0.62604 0.231225,-0.12624 0.462922,-0.25073 0.695028,-0.37318 -0.427938,-0.24082 -0.862155,-0.47494 -1.301202,-0.70239 -0.121293,-0.0621 -0.243002,-0.12379 -0.365101,-0.18507 -0.564085,-0.28312 -1.13647,-0.5577 -1.714371,-0.82618 z m 0.359017,-3.89147 c 0.590052,0.27683 1.173745,0.56535 1.748069,0.86566 0.574295,0.30033 1.139222,0.61244 1.691772,0.93641 0.103958,-0.63205 0.224997,-1.26585 0.365864,-1.90018 0.140868,-0.63432 0.301563,-1.26917 0.484835,-1.90332 -0.748571,0.28656 -1.481107,0.60014 -2.196561,0.93547 -0.715423,0.33532 -1.413766,0.6924 -2.093979,1.06596 z m 3.460024,1.84508 c -0.103488,0.63182 -0.189925,1.26189 -0.262058,1.88897 -0.07216,0.62709 -0.130014,1.2512 -0.176308,1.87106 0.592426,-0.3125 1.187518,-0.61159 1.784228,-0.89201 0.596736,-0.28042 1.19509,-0.54218 1.794014,-0.77998 -0.490476,-0.37197 -0.999377,-0.73189 -1.523693,-1.07987 -0.524316,-0.34797 -1.064047,-0.68401 -1.616183,-1.00817 z m 0.830516,-3.84651 c 0.565299,0.34759 1.11604,0.70798 1.649215,1.08126 0.533142,0.37329 1.04872,0.75947 1.543722,1.15862 0.194941,-0.60525 0.414113,-1.20809 0.660263,-1.8073 0.246151,-0.59921 0.519279,-1.19478 0.822133,-1.78548 -0.80851,0.1574 -1.603084,0.35235 -2.382672,0.5796 -0.779554,0.22724 -1.544124,0.48676 -2.292661,0.7733 z m 3.206438,2.28507 c -0.194238,0.60508 -0.364278,1.21256 -0.512862,1.82122 -0.148612,0.60866 -0.275769,1.21849 -0.384216,1.82826 0.598898,-0.2378 1.198365,-0.45165 1.797354,-0.6363 0.599016,-0.18464 1.197552,-0.34009 1.794563,-0.46106 -0.399907,-0.45152 -0.826436,-0.88989 -1.276579,-1.31522 -0.450143,-0.42533 -0.923899,-0.8376 -1.41826,-1.2369 z m 1.468895,-3.63797 c 0.505657,0.4333 0.988558,0.88051 1.445693,1.34172 0.457101,0.46121 0.88844,0.93642 1.291006,1.4257 0.312427,-0.55127 0.656236,-1.09599 1.034172,-1.6329 0.158445,-0.22509 0.322887,-0.44882 0.493531,-0.67108 0.230167,-0.30305 0.468141,-0.60231 0.7134,-0.89792 -0.237163,-0.009 -0.475232,-0.0143 -0.714211,-0.0172 -0.605375,0.01 -1.204635,0.0427 -1.797404,0.0974 -0.835299,0.077 -1.657711,0.19686 -2.466187,0.35425 z m 2.740756,2.81424 c -0.311494,0.55116 -0.591637,1.10888 -0.843178,1.67193 -0.251568,0.56306 -0.474531,1.13144 -0.671634,1.70392 0.596984,-0.12095 1.192441,-0.20743 1.785324,-0.25417 0.420739,-0.0331 0.840181,-0.0463 1.257952,-0.0376 0.1797,-0.003 0.35971,-0.004 0.540033,-9.3e-4 -0.172226,-0.30672 -0.35233,-0.61147 -0.540844,-0.91415 -0.13159,-0.222 -0.268992,-0.4415 -0.411985,-0.65851 -0.34108,-0.51763 -0.713973,-1.0211 -1.115668,-1.51049 z m 2.237046,-3.24872 c 0.394423,0.53846 0.761874,1.08262 1.105066,1.63197 0.34316,0.54936 0.662061,1.10389 0.959418,1.6631 0.415237,-0.47826 0.850326,-0.94699 1.3026,-1.40689 0.452273,-0.45991 0.921731,-0.911 1.405706,-1.35398 -0.774476,-0.14205 -1.559335,-0.26087 -2.354758,-0.35155 -0.795389,-0.0907 -1.60134,-0.1532 -2.418032,-0.18265 z m 2.059183,3.34175 c -0.414586,0.47834 -0.809294,0.96621 -1.181458,1.46432 -0.372193,0.49812 -0.72184,1.00648 -1.046274,1.5258 0.620958,0.009 1.245626,0.0512 1.874184,0.1223 0.628585,0.0711 1.26106,0.17084 1.897605,0.29435 -0.221536,-0.57576 -0.459166,-1.14788 -0.715605,-1.71585 -0.256439,-0.56797 -0.531685,-1.13178 -0.828452,-1.69092 z m 2.713607,-2.80755 c 0.2905,0.58503 0.561293,1.17357 0.815087,1.76509 0.253763,0.59152 0.49053,1.18603 0.713014,1.78301 0.477267,-0.42209 0.967302,-0.83737 1.467438,-1.24655 0.500137,-0.40918 1.010375,-0.81226 1.528047,-1.20995 -0.733657,-0.21527 -1.47734,-0.41715 -2.231229,-0.60072 -0.753856,-0.18357 -1.517915,-0.34884 -2.292357,-0.49088 z m 1.51664,3.59394 c -0.476829,0.42216 -0.940865,0.85113 -1.389439,1.28763 -0.448603,0.43649 -0.881743,0.8805 -1.296751,1.33275 0.636516,0.1235 1.277101,0.27076 1.921935,0.43684 0.644861,0.16609 1.293971,0.35101 1.947509,0.54984 -0.175925,-0.60475 -0.360684,-1.20805 -0.556989,-1.8094 -0.196305,-0.60134 -0.404156,-1.20074 -0.626265,-1.79766 z m 3.006946,-2.50234 c 0.215986,0.61295 0.419525,1.22722 0.613329,1.84227 0.193774,0.61504 0.377814,1.23087 0.554832,1.84697 0.511323,-0.38664 1.028331,-0.7692 1.548359,-1.14838 0.520026,-0.37919 1.043072,-0.755 1.566468,-1.12814 -0.694274,-0.2491 -1.398216,-0.49465 -2.112003,-0.73175 -0.713756,-0.23709 -1.437358,-0.46572 -2.170985,-0.68097 z m 1.153122,3.73436 c -0.511101,0.38672 -1.016491,0.77752 -1.513502,1.17312 -0.497039,0.3956 -0.985699,0.796 -1.463312,1.20192 0.65351,0.19881 1.311447,0.41153 1.973991,0.63324 0.662572,0.22172 1.329752,0.45242 2.001717,0.68718 -0.159723,-0.61507 -0.321018,-1.23091 -0.486596,-1.84699 -0.165578,-0.61608 -0.33544,-1.23242 -0.512298,-1.84847 z m 3.129866,-2.32164 c 0.170877,0.62224 0.336571,1.24358 0.499792,1.86352 0.163192,0.61992 0.32391,1.23844 0.48487,1.85502 0.05176,-0.0372 0.103514,-0.0744 0.155247,-0.11159 0.465745,-0.33461 0.933459,-0.66807 1.402177,-1.00086 0.520824,-0.3698 1.042887,-0.73878 1.56487,-1.10761 -0.646924,-0.23694 -1.297342,-0.47363 -1.951799,-0.70786 -0.03372,-0.0126 -0.06747,-0.0251 -0.101242,-0.0377 -0.675092,-0.25123 -1.359671,-0.50385 -2.053915,-0.75293 z m 0.968627,3.76302 c -0.517402,0.372 -1.036172,0.74536 -1.553646,1.12081 -0.517504,0.37544 -1.033711,0.75296 -1.545953,1.13327 0.671937,0.23476 1.348659,0.47358 2.030346,0.71152 0.0341,0.0119 0.06821,0.0238 0.102342,0.0357 0.634079,0.23028 1.270915,0.46468 1.911053,0.70103 -0.155434,-0.61794 -0.310841,-1.23541 -0.467699,-1.85245 -0.141167,-0.55531 -0.283508,-1.11027 -0.428106,-1.66489 -0.01612,-0.0617 -0.03222,-0.12332 -0.04834,-0.18499 z m 3.138329,-2.26454 c 0.159005,0.61825 0.316157,1.23649 0.472936,1.85476 5.87644,23.17787 -5.405833,-21.32305 0.470607,1.85483 0.520296,-0.36937 1.039735,-0.73946 1.556994,-1.11093 0.517259,-0.37148 1.032339,-0.74435 1.543917,-1.11928 -0.668039,-0.2403 -1.33868,-0.48544 -2.012559,-0.73287 -0.67385,-0.24741 -1.350937,-0.4971 -2.031895,-0.74651 z m 0.927222,3.75402 c -0.227656,0.16162 -1.33444,0.94498 -1.562096,1.1066 -0.520691,0.36858 -1.040902,0.7371 -1.559313,1.10625 0.673816,0.24878 1.351291,0.49971 2.033057,0.75022 0.681797,0.25053 1.367887,0.50063 2.058905,0.74776 -0.16795,-0.61864 -0.331818,-1.23718 -0.493083,-1.85564 -0.161266,-0.61846 -0.319929,-1.23685 -0.47747,-1.85519 z m 3.117232,-2.27464 c 0.156461,0.61522 0.315122,1.23009 0.477466,1.84461 0.162313,0.61451 0.328307,1.22869 0.499463,1.84256 0.511163,-0.3806 1.018048,-0.76412 1.519335,-1.15124 0.501286,-0.38713 0.996973,-0.77785 1.485738,-1.17284 -0.66017,-0.21066 -1.321672,-0.43128 -1.985143,-0.65933 -0.66344,-0.22803 -1.328848,-0.46347 -1.996859,-0.70376 z m 0.961634,3.73191 c -0.511274,0.38056 -1.026811,0.7582 -1.545289,1.13357 -0.518508,0.37537 -1.039957,0.74848 -1.563024,1.11999 0.690988,0.24712 1.386904,0.49126 2.088383,0.72984 0.701509,0.2386 1.408582,0.47166 2.121853,0.6966 -0.197954,-0.61279 -0.387772,-1.22583 -0.570932,-1.83915 -0.18316,-0.61334 -0.359664,-1.22694 -0.530991,-1.84085 z m 3.020368,-2.36882 c 0.171405,0.60564 0.349065,1.21057 0.534461,1.8148 0.185366,0.60422 0.378468,1.20775 0.580786,1.81061 0.48962,-0.40578 0.971543,-0.81671 1.444448,-1.23344 0.472905,-0.41673 0.936792,-0.83926 1.390337,-1.26827 -0.657382,-0.1605 -1.314826,-0.3361 -1.972967,-0.52424 -0.658112,-0.18814 -1.316922,-0.38881 -1.977065,-0.59946 z m 1.102322,3.67079 c -0.489844,0.40572 -0.98737,0.80631 -1.491256,1.20243 -0.503917,0.39611 -1.014195,0.78776 -1.529511,1.1756 0.71324,0.22493 1.432678,0.44176 2.158949,0.64791 0.726302,0.20616 1.459438,0.40164 2.200041,0.58389 -0.245446,-0.60038 -0.478702,-1.20137 -0.701245,-1.803 -0.222545,-0.60164 -0.434376,-1.20391 -0.636978,-1.80683 z m 2.84771,-2.54709 c 0.203836,0.58951 0.417983,1.17794 0.64392,1.76532 0.225907,0.58736 0.463604,1.17368 0.714572,1.75898 0.02806,-0.0274 0.05607,-0.0548 0.08403,-0.0823 0.426128,-0.41831 0.839727,-0.8431 1.241447,-1.27391 0.42807,-0.45907 0.84267,-0.92497 1.24458,-1.39714 -0.63643,-0.0911 -1.2684,-0.19911 -1.895289,-0.32563 -0.02025,-0.004 -0.04051,-0.007 -0.06076,-0.0117 -0.657864,-0.12773 -1.315154,-0.27312 -1.972508,-0.4336 z m 1.349284,3.57065 c -0.456006,0.44484 -0.923112,0.88234 -1.399998,1.31317 -0.476918,0.43082 -0.963616,0.85496 -1.458773,1.2731 0.740573,0.18223 1.488612,0.35124 2.244755,0.50443 0.02328,0.005 0.04656,0.009 0.06986,0.0141 0.744167,0.14377 1.488961,0.26727 2.233771,0.372 -0.31065,-0.57317 -0.60742,-1.1496 -0.88934,-1.72911 -0.264573,-0.54384 -0.516068,-1.09041 -0.753694,-1.63957 -0.01558,-0.036 -0.0311,-0.0721 -0.04658,-0.10812 z m 2.579275,-2.79967 c 0.25474,0.56612 0.52455,1.12947 0.80846,1.6899 0.28388,0.56042 0.58187,1.11791 0.89298,1.67232 0.40518,-0.48991 0.79812,-0.98547 1.17959,-1.48609 0.38148,-0.50063 0.75149,-1.00634 1.11086,-1.51655 -0.67314,-0.028 -1.3428,-0.071 -2.00835,-0.13038 -0.66551,-0.0594 -1.32691,-0.13525 -1.98354,-0.2292 z m 1.69721,3.40921 c -0.40554,0.48989 -0.82333,0.97414 -1.2542,1.4522 -0.43088,0.47806 -0.87484,0.94993 -1.33267,1.41505 0.76844,0.10805 1.53692,0.1961 2.30477,0.26578 0.76789,0.0697 1.53515,0.12096 2.30115,0.15548 -0.3602,-0.5415 -0.70919,-1.08641 -1.04602,-1.63455 -0.33683,-0.54813 -0.6615,-1.0995 -0.97303,-1.65396 z m 2.29468,-3.04963 c 0.31378,0.53828 0.63993,1.07364 0.97751,1.60594 0.33756,0.5323 0.68654,1.06153 1.04598,1.58754 0.36133,-0.52474 0.71244,-1.05335 1.05412,-1.58529 0.34168,-0.53195 0.67393,-1.0672 0.99756,-1.60522 -0.68442,0.0249 -1.36666,0.0382 -2.04609,0.0382 -0.6794,3e-5 -1.35597,-0.0131 -2.02908,-0.0412 z m 2.0234,3.24076 c -0.36161,0.52473 -0.73346,1.04558 -1.11635,1.56199 -0.38292,0.51643 -0.77688,1.02841 -1.18268,1.53539 0.76597,0.0345 1.53066,0.0523 2.29344,0.0549 0.76281,0.003 1.5237,-0.01 2.28202,-0.036 -0.39774,-0.51252 -0.78696,-1.02856 -1.16668,-1.54798 -0.37973,-0.51942 -0.74996,-1.04221 -1.10975,-1.56824 z m 2.05177,-3.23779 c 0.36079,0.5131 0.73129,1.02315 1.11054,1.52999 0.37922,0.50684 0.76718,1.01048 1.16294,1.51075 0.3243,-0.54931 0.64038,-1.10075 0.94908,-1.65375 0.30869,-0.55301 0.60998,-1.10758 0.90468,-1.66315 -0.6905,0.065 -1.38012,0.12157 -2.06823,0.16814 -0.68807,0.0466 -1.37463,0.0831 -2.05901,0.10802 z m 2.27669,3.08796 c -0.3245,0.54934 -0.65721,1.09654 -0.99893,1.64106 -0.34176,0.54453 -0.69253,1.08638 -1.0531,1.62498 0.75829,-0.0261 1.51401,-0.0657 2.26651,-0.11727 0.75252,-0.0516 1.50183,-0.11505 2.24728,-0.18884 -0.42328,-0.48618 -0.8407,-0.97604 -1.25132,-1.46941 -0.41061,-0.49337 -0.81441,-0.99026 -1.21044,-1.49052 z m 1.85055,-3.36412 c 0.23353,0.28946 0.4695,0.57781 0.70774,0.865 0.16632,0.19921 0.33354,0.39801 0.5016,0.59642 0.4099,0.48396 0.82479,0.96562 1.24373,1.44532 0.29683,-0.5635 0.58927,-1.12794 0.87832,-1.69321 0.28904,-0.56527 0.57468,-1.13137 0.85792,-1.69821 -0.70292,0.0922 -1.40373,0.18008 -2.10265,0.26183 -0.4927,0.0577 -0.98445,0.11224 -1.47535,0.16318 -0.20384,0.0206 -0.40761,0.0405 -0.61131,0.0597 z m 2.45856,2.95367 c -0.29693,0.56351 -0.59826,1.12609 -0.90498,1.68762 -0.12577,0.23022 -0.25244,0.46026 -0.38008,0.69013 -0.18483,0.33132 -0.37221,0.66223 -0.56229,0.99263 0.21991,-0.0218 0.43949,-0.0444 0.65871,-0.068 0.52003,-0.0545 1.03836,-0.11229 1.55504,-0.17283 0.73294,-0.0859 1.46259,-0.17723 2.18915,-0.2723 -0.43151,-0.4732 -0.86084,-0.94767 -1.28709,-1.42378 -0.42623,-0.4761 -0.84937,-0.95382 -1.26846,-1.4335 z m 1.73075,-3.43835 c 0.41968,0.47463 0.84282,0.94782 1.26849,1.4199 0.42563,0.47209 0.85378,0.94308 1.28352,1.4133 0.28417,-0.57014 0.56662,-1.14064 0.84836,-1.71141 0.28175,-0.57077 0.56278,-1.14181 0.84408,-1.713 -0.71221,0.10251 -1.42189,0.20421 -2.12924,0.30333 -0.70732,0.0991 -1.41232,0.19568 -2.11521,0.28788 z m 2.55855,2.88 c -0.28418,0.57014 -0.57008,1.13992 -0.85869,1.70922 -0.28865,0.5693 -0.58001,1.13815 -0.87506,1.70641 0.72652,-0.0951 1.44998,-0.19383 2.17056,-0.29455 0.72061,-0.10072 1.43836,-0.20338 2.15346,-0.30621 -0.43235,-0.46853 -0.86501,-0.93713 -1.29703,-1.40617 -0.43202,-0.46902 -0.86341,-0.93848 -1.29324,-1.4087 z m 1.6859,-3.47121 c 0.43091,0.46868 0.86282,0.93712 1.29477,1.40567 0.43193,0.46855 0.86391,0.93718 1.295,1.40626 0.28267,-0.57097 0.56631,-1.14173 0.85191,-1.71218 0.2856,-0.57046 0.57317,-1.1406 0.86371,-1.71035 -0.72324,0.0987 -1.4435,0.20007 -2.16101,0.30243 -0.71748,0.10235 -1.4322,0.20567 -2.14438,0.30817 z m 2.59645,2.85872 c -0.2826,0.57096 -0.56424,1.14211 -0.84591,1.71337 -0.28169,0.57126 -0.56343,1.14263 -0.84617,1.71399 0.71507,-0.10284 1.42748,-0.20584 2.13747,-0.30726 0.71001,-0.10141 1.41759,-0.20124 2.12295,-0.29771 -0.42376,-0.47217 -0.8503,-0.94323 -1.27867,-1.41352 -0.42837,-0.47029 -0.85857,-0.9398 -1.28967,-1.40887 z m 1.70894,-3.46932 c 0.43269,0.47108 0.86393,0.9431 1.29273,1.41643 0.42879,0.47333 0.85515,0.94795 1.27816,1.42419 0.29233,-0.56597 0.5883,-1.13117 0.88894,-1.69549 0.25592,-0.48042 0.51523,-0.96019 0.7785,-1.43926 0.0456,-0.0836 0.0914,-0.16718 0.13722,-0.25073 -0.0543,0.006 -0.10866,0.0118 -0.16299,0.0179 -0.68079,0.0755 -1.35868,0.15634 -2.03383,0.24099 -0.72935,0.0915 -1.45553,0.18738 -2.17873,0.28604 z m 2.57677,2.88752 c -0.29218,0.56595 -0.58072,1.13268 -0.8666,1.70008 -0.28592,0.56741 -0.56918,1.13547 -0.85077,1.70411 0.70533,-0.0964 1.40843,-0.18956 2.10954,-0.27753 0.64901,-0.0815 1.29629,-0.15848 1.94203,-0.22972 0.0522,-0.006 0.10445,-0.0116 0.15669,-0.0174 -0.0607,-0.0718 -0.12157,-0.1437 -0.18246,-0.21552 -0.3467,-0.41157 -0.69711,-0.82151 -1.05063,-1.23002 -0.41528,-0.47987 -0.83485,-0.95776 -1.2578,-1.43402 z m 1.79878,-3.43238 c 0.42259,0.48227 0.84167,0.96601 1.25738,1.45117 0.41569,0.48516 0.82801,0.97174 1.23713,1.45969 0.30823,-0.55722 0.61982,-1.11355 0.93463,-1.66902 0.3148,-0.55547 0.63281,-1.11006 0.95386,-1.66382 -0.73031,0.0614 -1.46074,0.12711 -2.19126,0.19735 -0.73049,0.0703 -1.46108,0.14501 -2.19174,0.22463 z m 2.49906,2.95788 c -0.30811,0.55721 -0.61284,1.1153 -0.91404,1.6743 -0.30122,0.559 -0.59892,1.11891 -0.89291,1.67976 0.70246,-0.0775 1.40571,-0.15029 2.10971,-0.21857 0.70404,-0.0683 1.40884,-0.13212 2.11436,-0.19175 -0.39686,-0.49322 -0.79662,-0.98519 -1.19942,-1.47582 -0.4028,-0.49064 -0.80865,-0.97997 -1.2177,-1.46792 z m 1.88394,-3.37986 c 0.40925,0.49233 0.8154,0.98595 1.2186,1.4808 0.40317,0.49486 0.80339,0.99094 1.20082,1.48822 0.32113,-0.54966 0.64518,-1.09855 0.97201,-1.64668 0.32682,-0.54812 0.65642,-1.09549 0.98862,-1.64213 -0.72971,0.0456 -1.4596,0.0948 -2.18963,0.14799 -0.73,0.0532 -1.46015,0.11037 -2.19042,0.1718 z m 2.42285,3.01612 c -0.32101,0.54966 -0.63908,1.1001 -0.95407,1.65133 -0.31502,0.55124 -0.62694,1.10328 -0.9356,1.65615 0.70551,-0.0596 1.41173,-0.11509 2.11867,-0.16666 0.70695,-0.0516 1.41462,-0.0992 2.12298,-0.14332 -0.38683,-0.50182 -0.77614,-1.00255 -1.16808,-1.50215 -0.39195,-0.49961 -0.78653,-0.99807 -1.1839,-1.49535 z m 1.9572,-3.33591 c 0.39751,0.50108 0.79232,1.00325 1.18459,1.50648 0.39225,0.50324 0.78196,1.00752 1.16928,1.51281 0.33222,-0.54312 0.66694,-1.08557 1.00399,-1.62738 0.33705,-0.54179 0.67643,-1.08294 1.01798,-1.62347 -0.7289,0.032 -1.45803,0.0671 -2.18736,0.10563 -0.7293,0.0385 -1.45881,0.0803 -2.18848,0.12593 z m 2.35635,3.06645 c -0.33212,0.54312 -0.66174,1.08691 -0.98871,1.6314 -0.327,0.54448 -0.65134,1.08966 -0.97286,1.63556 0.70831,-0.0441 1.41731,-0.0846 2.12696,-0.12174 0.70968,-0.0371 1.42001,-0.071 2.13098,-0.10188 -0.37839,-0.50909 -0.75884,-1.01728 -1.14152,-1.52452 -0.38266,-0.50724 -0.76757,-1.01353 -1.15485,-1.51882 z m 2.01949,-3.29801 c 0.38736,0.50851 0.77242,1.01793 1.15536,1.52822 0.38291,0.51029 0.76369,1.02145 1.1425,1.53343 0.34153,-0.5376 0.6851,-1.07462 1.03058,-1.61111 0.34547,-0.53648 0.69283,-1.07241 1.04193,-1.60783 -0.72788,0.0208 -1.45605,0.0442 -2.18447,0.0703 -0.72838,0.0261 -1.45703,0.0551 -2.1859,0.087 z m 2.29955,3.10887 c -0.34143,0.53758 -0.68081,1.07574 -1.01795,1.61447 -0.33719,0.53874 -0.67215,1.07807 -1.00472,1.61801 0.71092,-0.0308 1.42247,-0.0587 2.13463,-0.0838 0.71219,-0.0251 1.42497,-0.0475 2.13833,-0.0674 -0.37153,-0.51504 -0.74471,-1.02937 -1.1197,-1.54293 -0.375,-0.51356 -0.75181,-1.02636 -1.13059,-1.53834 z m 2.07082,-3.26616 c 0.37879,0.51461 0.7557,1.02996 1.1309,1.54599 0.37517,0.51603 0.74861,1.03275 1.1205,1.5501 0.34902,-0.53307 0.69966,-1.06568 1.05174,-1.59786 0.3521,-0.53217 0.70564,-1.06392 1.06049,-1.59523 -0.72666,0.0119 -1.45365,0.0257 -2.18094,0.0418 -0.72726,0.0161 -1.45484,0.0343 -2.18269,0.0552 z m 2.25243,3.14335 c -0.34894,0.53306 -0.69625,1.06659 -1.04178,1.60059 -0.34557,0.53401 -0.68934,1.06849 -1.03118,1.60349 0.71332,-0.02 1.42722,-0.0375 2.14168,-0.0529 0.71447,-0.0154 1.4295,-0.0286 2.14504,-0.04 -0.36625,-0.51968 -0.73376,-1.03882 -1.10266,-1.55739 -0.36891,-0.51857 -0.73922,-1.03655 -1.1111,-1.55391 z m 2.1112,-3.24035 c 0.37181,0.5194 0.74217,1.03936 1.11121,1.55981 0.36901,0.52046 0.73672,1.04141 1.10327,1.56283 0.35471,-0.52956 0.71061,-1.05878 1.06751,-1.58765 0.35692,-0.52888 0.71485,-1.05743 1.07363,-1.58567 -0.72521,0.006 -1.45081,0.012 -2.17677,0.0205 -0.72593,0.008 -1.45222,0.0183 -2.17885,0.0303 z m 2.21502,3.16991 c -0.35465,0.52956 -0.70811,1.05947 -1.06022,1.58975 -0.35215,0.53029 -0.70295,1.06094 -1.05224,1.59198 0.71552,-0.0114 1.43156,-0.0209 2.14809,-0.0289 0.71656,-0.008 1.43362,-0.0144 2.15115,-0.0194 -0.36259,-0.523 -0.726,-1.04565 -1.09042,-1.56791 -0.36441,-0.52225 -0.72981,-1.04411 -1.09636,-1.56552 z m 2.1406,-3.22059 c 0.36644,0.52288 0.73181,1.04612 1.09629,1.56969 0.36445,0.52356 0.728,1.04745 1.09082,1.57159 0.3586,-0.52706 0.71795,-1.05388 1.07787,-1.58046 0.35994,-0.5266 0.72045,-1.05297 1.08138,-1.57914 -0.72356,9.2e-4 -1.44757,0.003 -2.17198,0.006 -0.72439,0.003 -1.44918,0.007 -2.17438,0.0123 z m 2.1873,3.18857 c -0.35855,0.52706 -0.71635,1.05436 -1.07324,1.58193 -0.35693,0.52756 -0.71294,1.0554 -1.06788,1.58352 0.71749,-0.006 1.43545,-0.009 2.15386,-0.0119 0.71843,-0.003 1.4373,-0.005 2.1566,-0.006 -0.3605,-0.525 -0.72142,-1.04984 -1.08293,-1.57447 -0.3615,-0.52463 -0.72359,-1.04904 -1.08641,-1.57318 z m 2.15906,-3.20689 c 0.36264,0.52504 0.72463,1.05026 1.08614,1.57561 0.36148,0.52535 0.72247,1.05084 1.08314,1.57641 0.36069,-0.52557 0.72169,-1.051 1.08284,-1.57632 0.36114,-0.52532 0.72243,-1.05052 1.08371,-1.57562 -0.7217,-7.7e-4 -1.44391,-9.3e-4 -2.16656,-0.002 -0.72263,-1.1e-4 -1.44573,2.5e-4 -2.16927,9.2e-4 z m 2.16928,3.19931 c -0.36066,0.52557 -0.721,1.05127 -1.08087,1.57714 -0.3599,0.52586 -0.71934,1.05188 -1.07813,1.57809 0.71926,-9.2e-4 1.43893,-0.002 2.15901,-0.002 0.72009,-1.2e-4 1.44058,1.7e-4 2.16142,5.6e-4 -0.36,-0.52569 -0.72002,-1.0514 -1.0802,-1.57708 -0.36019,-0.52568 -0.72055,-1.05132 -1.08123,-1.57689 z m 2.16655,-3.19923 c 0.36042,0.52587 0.72063,1.05176 1.08076,1.57757 0.36009,0.52583 0.72011,1.05161 1.08022,1.57728 0.36098,-0.52508 0.72183,-1.05014 1.08239,-1.57519 0.36057,-0.52506 0.72084,-1.0501 1.08065,-1.57516 -0.71963,-3.4e-4 -1.43981,-9.3e-4 -2.16051,-0.002 -0.72065,-8.5e-4 -1.44184,-0.002 -2.16351,-0.003 z m 2.16094,3.20212 c -0.36095,0.52509 -0.72204,1.05021 -1.08309,1.57539 -0.36107,0.52517 -0.72212,1.05039 -1.08297,1.57568 0.72082,4e-4 1.442,9e-4 2.16351,9.3e-4 0.72155,3.1e-4 1.44344,4.4e-4 2.16563,1e-4 -0.36109,-0.52506 -0.72179,-1.05032 -1.08226,-1.57573 -0.36046,-0.52542 -0.72068,-1.05099 -1.08082,-1.57666 z M 322.8796,139.26076 c -0.52496,0.35941 -1.0499,0.71984 -1.57495,1.08061 -0.52504,0.36074 -1.05019,0.72181 -1.57554,1.0825 0.52552,0.36048 1.05096,0.72139 1.57612,1.0834 0.52517,0.36202 1.05005,0.72514 1.57442,1.09004 0.002,-0.7266 0.003,-1.45136 0.002,-2.17417 -4.3e-4,-0.72277 -0.002,-1.4436 -0.002,-2.16238 z m -3.19776,2.16312 c -0.52552,-0.36044 -1.0511,-0.72046 -1.57655,-1.08073 -0.52545,-0.36031 -1.05075,-0.72088 -1.5757,-1.08239 -5.6e-4,0.72298 -2.5e-4,1.4443 -3.4e-4,2.16385 -1.1e-4,0.71958 -6.2e-4,1.43739 -0.003,2.15334 0.52658,-0.35637 1.05274,-0.71453 1.5786,-1.07378 0.52586,-0.35925 1.05141,-0.71958 1.57677,-1.08029 z m 3.19781,2.17343 c -0.5266,0.3617 -1.05369,0.72255 -1.58137,1.08182 -0.52767,0.35925 -1.05594,0.71693 -1.58489,1.07234 0.52186,0.36579 1.04287,0.73379 1.56281,1.1047 0.51995,0.3709 1.03885,0.74471 1.55646,1.1221 0.0151,-0.73361 0.0257,-1.46557 0.0332,-2.19578 0.007,-0.73018 0.0116,-1.4586 0.0138,-2.18518 z m -3.21354,2.1537 c -0.52185,-0.36569 -1.04457,-0.72916 -1.56792,-1.09109 -0.52334,-0.36197 -1.04732,-0.7224 -1.57172,-1.08197 -0.002,0.71591 -0.006,1.42996 -0.0128,2.14204 -0.006,0.71211 -0.0165,1.42226 -0.0304,2.13034 0.53214,-0.34346 1.06338,-0.6906 1.59382,-1.04072 0.53045,-0.35013 1.06009,-0.70323 1.58904,-1.0586 z m 3.16655,2.22726 c -0.53275,0.35622 -1.06646,0.70969 -1.60126,1.0597 -0.5348,0.34998 -1.07067,0.6965 -1.60771,1.03886 0.51256,0.37806 1.02349,0.76015 1.53259,1.14693 0.50909,0.38678 1.01635,0.77825 1.52156,1.1751 0.0381,-0.73982 0.0693,-1.47819 0.0947,-2.215 0.0254,-0.73679 0.045,-1.47202 0.0602,-2.20559 z m -3.25619,2.09695 c -0.51257,-0.37791 -1.02676,-0.75181 -1.54237,-1.12239 -0.51561,-0.3706 -1.03262,-0.73788 -1.55085,-1.1025 -0.0139,0.70805 -0.032,1.41404 -0.0556,2.11786 -0.0236,0.70385 -0.0527,1.40554 -0.0884,2.10497 0.54219,-0.32277 1.08298,-0.65112 1.62249,-0.98435 0.53951,-0.33322 1.07774,-0.67132 1.61479,-1.01359 z m 3.10137,2.32364 c -0.54338,0.34298 -1.08821,0.6813 -1.6346,1.01427 -0.5464,0.33294 -1.09436,0.66052 -1.64399,0.98206 0.49762,0.39733 0.99284,0.80047 1.48544,1.21011 0.39105,0.32519 0.78045,0.65446 1.1681,0.98817 0.1022,0.0855 0.20444,0.17121 0.30668,0.2573 0.006,-0.0758 0.0113,-0.15138 0.0168,-0.22683 0.0622,-0.66819 0.11685,-1.33536 0.16482,-2.00144 0.0535,-0.7426 0.0987,-1.48384 0.13682,-2.22364 z m -3.32571,1.99292 c -0.49763,-0.39713 -0.99767,-0.78845 -1.4999,-1.17464 -0.50222,-0.38623 -1.00664,-0.76733 -1.51304,-1.14398 -0.0358,0.6994 -0.0783,1.39653 -0.12883,2.0913 -0.0453,0.62319 -0.0971,1.24447 -0.15616,1.86378 -0.008,0.0725 -0.0169,0.14498 -0.0255,0.21738 0.11641,-0.0621 0.23269,-0.12439 0.34884,-0.1869 0.44133,-0.23607 0.8815,-0.47674 1.32054,-0.72169 0.55307,-0.30855 1.10436,-0.62387 1.65398,-0.94525 z m 3.00734,2.45899 c -0.5513,0.3175 -1.10906,0.63474 -1.67159,0.94715 -0.56253,0.31238 -1.12981,0.61993 -1.70017,0.91809 0.48323,0.42514 0.96306,0.85962 1.43599,1.30679 0.47295,0.44717 0.93897,0.90704 1.3946,1.38299 0.13474,-0.77691 0.24237,-1.54813 0.33014,-2.30891 0.0878,-0.76074 0.15569,-1.51103 0.21103,-2.24611 z m -3.41915,1.85953 c -0.48323,-0.42484 -0.96982,-0.84039 -1.45625,-1.25003 -0.48643,-0.40967 -0.9727,-0.81343 -1.4553,-1.21465 -0.0821,0.70231 -0.1627,1.3985 -0.24917,2.0838 -0.0865,0.68533 -0.17882,1.35977 -0.28426,2.01856 0.57571,-0.2419 1.15178,-0.50237 1.72651,-0.77684 0.57473,-0.27447 1.14811,-0.56294 1.71847,-0.86084 z m 2.87798,2.69549 c -0.59036,0.30096 -1.18387,0.58868 -1.77882,0.8586 -0.59495,0.26988 -1.19134,0.52197 -1.78749,0.75169 0.42835,0.47395 0.84273,0.96542 1.23962,1.47781 0.3969,0.51238 0.77631,1.04566 1.13473,1.60323 0.27228,-0.78055 0.5029,-1.56495 0.69914,-2.34845 0.19624,-0.78346 0.35808,-1.56601 0.49282,-2.34288 z m -3.6124,1.5993 c -0.42857,-0.47331 -0.87108,-0.92914 -1.32401,-1.37086 -0.45292,-0.44174 -0.91629,-0.86937 -1.38655,-1.28625 -0.10545,0.65875 -0.224,1.30185 -0.36293,1.92452 -0.13893,0.6227 -0.29825,1.22497 -0.48522,1.80204 0.58804,-0.12123 1.17975,-0.27403 1.77344,-0.45379 0.59368,-0.17977 1.18934,-0.3865 1.78527,-0.61566 z m 2.42044,3.09203 c -0.63069,0.22298 -1.26122,0.41976 -1.88987,0.58575 -0.62864,0.16596 -1.25541,0.30114 -1.87862,0.401 0.31662,0.54602 0.60867,1.11778 0.87266,1.71866 0.26207,0.59653 0.49649,1.22175 0.69981,1.87896 9.2e-4,0.005 0.003,0.01 0.004,0.0148 0.002,-0.003 0.004,-0.006 0.006,-0.008 0.46586,-0.74343 0.87596,-1.50015 1.23749,-2.26544 0.36283,-0.76802 0.67675,-1.54468 0.94902,-2.32519 z m -3.81076,0.96667 c -0.31705,-0.54508 -0.65861,-1.06448 -1.02118,-1.56154 -0.36257,-0.4971 -0.74613,-0.97187 -1.14721,-1.42771 -0.18696,0.57705 -0.40156,1.12891 -0.65108,1.65079 -0.24863,0.52003 -0.53192,1.0103 -0.85706,1.46611 -9.1e-4,0.002 -0.002,0.003 -0.003,0.005 0.004,6e-4 0.008,9.3e-4 0.0122,0.002 0.59738,0.0598 1.20164,0.0757 1.81111,0.0522 0.61392,-0.0236 1.23312,-0.0872 1.85591,-0.18615 z m 1.61835,3.63255 c -0.70995,0.10619 -1.40122,0.14801 -2.0701,0.13211 -0.66885,-0.0159 -1.31531,-0.0896 -1.93566,-0.21439 0.10536,0.62396 0.15873,1.27218 0.15965,1.93707 9.2e-4,0.66491 -0.0506,1.3465 -0.1551,2.0372 0.77292,-0.50083 1.50147,-1.07815 2.17267,-1.7281 0.67118,-0.64993 1.28502,-1.3725 1.82854,-2.16389 z m -4.03842,-0.11597 c -0.10656,-0.6228 -0.26508,-1.22128 -0.47511,-1.78788 -0.21001,-0.56661 -0.47153,-1.10133 -0.78408,-1.59659 -0.25125,0.41143 -0.56158,0.79214 -0.91804,1.1383 -0.35647,0.34618 -0.75906,0.65781 -1.19479,0.93108 0.49985,0.30365 1.03325,0.56948 1.5965,0.79087 0.56324,0.22138 1.15632,0.39833 1.77552,0.52422 z m 0.0372,4.00796 c -0.66845,-0.18987 -1.30615,-0.42709 -1.9094,-0.70505 -0.60322,-0.27798 -1.17199,-0.59669 -1.70259,-0.94953 -0.13956,0.62178 -0.33019,1.24699 -0.57237,1.86807 -0.24218,0.62107 -0.53591,1.23802 -0.88164,1.84327 0.89848,-0.17967 1.77855,-0.44346 2.62722,-0.78753 0.84865,-0.34406 1.6659,-0.76842 2.43878,-1.26923 z m -3.62959,-1.69842 c 0.1382,-0.6212 0.22534,-1.23891 0.26191,-1.84553 0.0366,-0.60663 0.0226,-1.20219 -0.0416,-1.7791 -0.43571,0.27325 -0.90456,0.50813 -1.39357,0.70082 -0.48904,0.1927 -0.99825,0.3432 -1.51463,0.44769 0.3617,0.46316 0.76901,0.90549 1.21823,1.32039 0.44921,0.41489 0.94032,0.80234 1.46961,1.15573 z m -1.43641,3.75518 c -0.55275,-0.42559 -1.0627,-0.88152 -1.52614,-1.3612 -0.0598,-0.0619 -0.11881,-0.12418 -0.17705,-0.18686 -0.3841,-0.42558 -0.73935,-0.86174 -1.06764,-1.30697 -0.34214,0.53508 -0.71964,1.05778 -1.12894,1.56731 -0.40929,0.50955 -0.85037,1.00594 -1.31968,1.4884 0.84023,0.0765 1.69217,0.10612 2.55308,0.083 0.37487,-0.01 0.75144,-0.0301 1.12949,-0.0606 0.51661,-0.0471 1.02968,-0.12174 1.53688,-0.22316 z m -2.7724,-2.90209 c 0.29704,-0.46604 0.56723,-0.94145 0.80821,-1.42574 0.0343,-0.0714 0.0679,-0.14291 0.10062,-0.21461 0.25356,-0.55574 0.45745,-1.12121 0.61214,-1.68886 -0.29151,0.059 -0.58531,0.10329 -0.87907,0.13226 -0.24704,0.0281 -0.4959,0.0474 -0.74636,0.0581 -0.57515,0.0247 -1.15871,0.005 -1.74787,-0.0537 0.24539,0.54999 0.52052,1.09252 0.82829,1.62534 0.30776,0.53284 0.64815,1.05596 1.02404,1.56714 z m -2.44705,3.10277 c -0.37092,-0.55894 -0.70777,-1.12734 -1.01341,-1.70299 -0.30561,-0.57565 -0.58004,-1.15853 -0.82615,-1.74638 -0.46051,0.44062 -0.94639,0.8678 -1.45408,1.28075 -0.50769,0.41296 -1.03718,0.81169 -1.5849,1.19542 0.78231,0.24007 1.58186,0.44515 2.39589,0.60932 0.81399,0.16416 1.64246,0.28742 2.48265,0.36388 z m -1.82992,-3.49565 c 0.45968,-0.44076 0.89394,-0.89495 1.29922,-1.36181 0.40531,-0.46686 0.78164,-0.94638 1.12542,-1.43779 -0.58915,-0.0586 -1.18391,-0.15583 -1.78155,-0.28589 -0.59765,-0.13006 -1.19817,-0.29291 -1.79878,-0.48265 0.14373,0.59864 0.30999,1.1968 0.50165,1.79225 0.19165,0.59544 0.4087,1.18814 0.65404,1.77589 z m -3.04862,2.52245 c -0.23459,-0.6238 -0.44232,-1.25011 -0.62608,-1.87668 -0.18373,-0.62655 -0.34349,-1.25337 -0.48217,-1.87819 -0.5334,0.35371 -1.08219,0.6929 -1.64281,1.01679 -0.25709,0.14854 -0.51666,0.29386 -0.77838,0.43589 -0.30932,0.1688 -0.62191,0.33385 -0.9373,0.49554 0.191,0.0938 0.3834,0.18642 0.57726,0.27786 0.52103,0.25046 1.05377,0.48775 1.59714,0.70956 0.74503,0.30413 1.51007,0.57918 2.29234,0.81923 z m -1.09049,-3.7989 c 0.53283,-0.35397 1.05023,-0.72244 1.54865,-1.10466 0.49843,-0.38219 0.97788,-0.77813 1.43477,-1.18703 -0.6006,-0.18974 -1.20129,-0.40635 -1.79933,-0.64395 -0.43616,-0.17329 -0.8709,-0.35773 -1.30316,-0.55104 -0.15999,-0.0733 -0.31976,-0.14847 -0.47938,-0.22545 0.0352,0.33243 0.0748,0.66533 0.11934,0.99885 0.038,0.28156 0.0795,0.56422 0.12492,0.84778 0.0989,0.61833 0.21603,1.24091 0.35419,1.8655 z m -3.37625,1.99225 c -0.12302,-0.64502 -0.22689,-1.28611 -0.31518,-1.92429 -0.0882,-0.63816 -0.16093,-1.2734 -0.22159,-1.9067 -0.56925,0.28413 -1.14678,0.55939 -1.7298,0.82821 -0.58302,0.26882 -1.17154,0.5312 -1.76277,0.78961 0.64176,0.38361 1.29634,0.76373 1.96687,1.13453 0.67049,0.37079 1.35693,0.73227 2.06247,1.07864 z m -0.51388,-3.87227 c 0.56892,-0.28431 1.12953,-0.57751 1.67906,-0.88206 0.54956,-0.30452 1.08802,-0.6204 1.61262,-0.95005 -0.58965,-0.28434 -1.17726,-0.59302 -1.76597,-0.92025 -0.58875,-0.32724 -1.17861,-0.67303 -1.77272,-1.03153 0.0268,0.62945 0.0583,1.25886 0.0983,1.88917 0.04,0.63032 0.0884,1.26157 0.14876,1.89472 z m -3.51546,1.6591 c -0.0505,-0.64202 -0.092,-1.28179 -0.12784,-1.92032 -0.0358,-0.63851 -0.0662,-1.27577 -0.0945,-1.91278 -0.58423,0.25552 -1.16983,0.50964 -1.75403,0.76483 -0.58421,0.25518 -1.167,0.51142 -1.74561,0.77116 0.60311,0.37435 1.21275,0.75684 1.83206,1.14163 0.61926,0.38478 1.24819,0.77187 1.88993,1.15548 z m -0.19734,-3.87325 c 0.58415,-0.25557 1.16689,-0.51253 1.74543,-0.77335 0.57858,-0.26079 1.15295,-0.52545 1.72036,-0.79639 -0.5941,-0.3585 -1.19245,-0.72973 -1.7982,-1.10789 -0.60578,-0.37816 -1.21896,-0.76324 -1.84269,-1.14943 0.0348,0.64001 0.0644,1.27827 0.0924,1.91578 0.028,0.63751 0.0543,1.27428 0.0827,1.91128 z m -3.52465,1.57614 c -0.0245,-0.6341 -0.05,-1.26763 -0.0799,-1.90159 -0.0299,-0.63394 -0.0643,-1.26832 -0.10676,-1.90411 -0.57791,0.26848 -1.15029,0.54306 -1.71438,0.82618 -0.1221,0.0613 -0.24381,0.12297 -0.36511,0.18507 -0.43904,0.22745 -0.87325,0.46158 -1.3012,0.7024 0.23211,0.12244 0.46381,0.24693 0.69503,0.37317 0.35903,0.20265 0.71861,0.41177 1.07942,0.62604 0.59321,0.35228 1.18979,0.7185 1.79288,1.09284 z m -0.16256,-3.84638 c 0.57807,-0.26838 1.16164,-0.53068 1.74791,-0.78934 0.58629,-0.25865 1.17529,-0.51367 1.7642,-0.76748 -0.6237,-0.38618 -1.25795,-0.77346 -1.90588,-1.15604 -0.39412,-0.2327 -0.7933,-0.46367 -1.19825,-0.69158 -0.26087,-0.1511 -0.52459,-0.29999 -0.79108,-0.44635 0.0706,0.50962 0.13186,1.01712 0.18491,1.52191 0.0146,0.13872 0.0287,0.27733 0.0422,0.41582 0.0625,0.63978 0.11325,1.27714 0.15595,1.91306 z m -3.40477,1.75433 c -0.0463,-0.61987 -0.10414,-1.24397 -0.1763,-1.87107 -0.0721,-0.62707 -0.15857,-1.25714 -0.26206,-1.88897 -0.55213,0.32416 -1.09186,0.6602 -1.61618,1.00817 -0.52432,0.34798 -1.03322,0.70791 -1.52369,1.07987 0.59892,0.2378 1.19727,0.49956 1.79401,0.77998 0.5967,0.28042 1.1918,0.57951 1.78422,0.89202 z m -0.41818,-3.80305 c 0.55255,-0.32397 1.11748,-0.63608 1.69178,-0.9364 0.57432,-0.30032 1.15801,-0.58884 1.74807,-0.86567 -0.68022,-0.37356 -1.37856,-0.73064 -2.09398,-1.06596 -0.71546,-0.33533 -1.44799,-0.64891 -2.19656,-0.93547 0.18326,0.63415 0.34396,1.269 0.48483,1.90332 0.14087,0.63433 0.26191,1.26813 0.36586,1.90018 z m -3.16005,2.13105 c -0.10846,-0.60977 -0.23561,-1.2196 -0.38422,-1.82826 -0.14859,-0.60866 -0.31863,-1.21613 -0.51287,-1.82122 -0.49436,0.3993 -0.96811,0.81157 -1.41825,1.2369 -0.45014,0.42533 -0.87667,0.86371 -1.27659,1.31522 0.59702,0.12097 1.19556,0.27642 1.79457,0.46106 0.59899,0.18465 1.19846,0.3985 1.79736,0.6363 z m -0.88358,-3.69467 c 0.495,-0.39915 1.01058,-0.78533 1.54372,-1.15862 0.53318,-0.37328 1.08392,-0.73367 1.64922,-1.08126 -0.74854,-0.28654 -1.51311,-0.54606 -2.29266,-0.7733 -0.7796,-0.22725 -1.57417,-0.4222 -2.38267,-0.5796 0.30284,0.5907 0.57598,1.18627 0.82213,1.78548 0.24615,0.59921 0.46532,1.20205 0.66026,1.8073 z m -2.70835,2.59731 c -0.19709,-0.57248 -0.42005,-1.14086 -0.67163,-1.70392 -0.25154,-0.56305 -0.53168,-1.12077 -0.84317,-1.67193 -0.4017,0.48939 -0.77459,0.99286 -1.11568,1.51049 -0.14299,0.21701 -0.28039,0.43651 -0.41197,0.65851 -0.18852,0.30268 -0.36863,0.60744 -0.54085,0.91415 0.18032,-0.003 0.36033,-0.002 0.54003,9.3e-4 0.41778,-0.008 0.83721,0.005 1.25796,0.0376 0.59288,0.0468 1.18834,0.13323 1.78531,0.25418 z m -1.51075,-3.42267 c 0.40257,-0.48928 0.83391,-0.96449 1.29101,-1.4257 0.45714,-0.46121 0.94004,-0.90842 1.4457,-1.34172 -0.80848,-0.1574 -1.6309,-0.27724 -2.46619,-0.35426 -0.59277,-0.0547 -1.19204,-0.0877 -1.79741,-0.0974 -0.23897,0.003 -0.47705,0.009 -0.71421,0.0172 0.24526,0.29561 0.48323,0.59487 0.7134,0.89793 0.17065,0.22226 0.33509,0.44598 0.49353,0.67107 0.37794,0.53692 0.72175,1.08163 1.03417,1.63291 z m -2.07255,3.12997 c -0.32444,-0.51932 -0.67408,-1.02768 -1.04628,-1.5258 -0.37216,-0.49811 -0.76687,-0.98598 -1.18145,-1.46432 -0.29677,0.55914 -0.57201,1.12295 -0.82846,1.69092 -0.25643,0.56797 -0.49406,1.14009 -0.7156,1.71585 0.63654,-0.12351 1.26902,-0.22326 1.8976,-0.29435 0.62856,-0.0711 1.25323,-0.11348 1.87419,-0.1223 z m -2.23304,-3.0368 c 0.29736,-0.55921 0.61627,-1.11374 0.95942,-1.6631 0.3432,-0.54935 0.71065,-1.09351 1.10507,-1.63197 -0.81669,0.0294 -1.62264,0.092 -2.41804,0.18265 -0.79541,0.0907 -1.58027,0.2095 -2.35475,0.35155 0.48398,0.44298 0.95343,0.89407 1.4057,1.35398 0.45228,0.4599 0.88737,0.92863 1.3026,1.40689 z m -1.53875,3.45345 c -0.41501,-0.45225 -0.84815,-0.89626 -1.29675,-1.33275 -0.44858,-0.4365 -0.91261,-0.86547 -1.38944,-1.28763 -0.22211,0.59692 -0.42996,1.19632 -0.62627,1.79766 -0.1963,0.60135 -0.38106,1.20465 -0.55698,1.8094 0.65353,-0.19883 1.30264,-0.38375 1.9475,-0.54984 0.64484,-0.16608 1.28542,-0.31334 1.92194,-0.43684 z m -2.69765,-2.66623 c 0.22248,-0.59697 0.45925,-1.19148 0.71302,-1.783 0.25379,-0.59152 0.52458,-1.18006 0.81508,-1.76509 -0.77444,0.14204 -1.5385,0.30731 -2.29236,0.49088 -0.75389,0.18357 -1.49757,0.38545 -2.23123,0.60072 0.51767,0.39769 1.02791,0.80077 1.52805,1.20995 0.50014,0.40918 0.99017,0.82446 1.46744,1.24654 z m -1.17179,3.65291 c -0.47761,-0.40592 -0.96627,-0.80632 -1.46331,-1.20192 -0.49701,-0.3956 -1.00241,-0.7864 -1.51351,-1.17312 -0.17685,0.61605 -0.34672,1.23239 -0.51229,1.84847 -0.16558,0.61608 -0.32688,1.23192 -0.4866,1.84699 0.67197,-0.23476 1.33915,-0.46546 2.00172,-0.68718 0.66254,-0.22171 1.32048,-0.43443 1.97399,-0.63324 z m -2.99186,-2.42016 c 0.17702,-0.6161 0.36106,-1.23193 0.55484,-1.84697 0.1938,-0.61505 0.39734,-1.22932 0.61332,-1.84227 -0.73363,0.21525 -1.45723,0.44388 -2.17098,0.68097 -0.71378,0.2371 -1.41773,0.48265 -2.11201,0.73175 0.5234,0.37314 1.04645,0.74895 1.56648,1.12814 0.52002,0.37918 1.03703,0.76174 1.54835,1.14838 z m -0.98385,3.74058 c -0.51225,-0.38031 -1.02845,-0.75783 -1.54595,-1.13327 -0.51748,-0.37545 -1.03625,-0.74881 -1.55365,-1.12081 -0.0161,0.0617 -0.0322,0.12334 -0.0483,0.18499 -0.1446,0.55462 -0.28694,1.10958 -0.4281,1.66489 -0.15687,0.61705 -0.31227,1.23452 -0.4677,1.85245 0.64014,-0.23635 1.27697,-0.47075 1.91105,-0.70102 0.0342,-0.0119 0.0682,-0.0238 0.10234,-0.0357 0.68169,-0.23796 1.35841,-0.47677 2.03035,-0.71152 z m -3.11564,-2.29856 c 0.16096,-0.61658 0.32169,-1.2351 0.48488,-1.85502 0.16321,-0.61994 0.32891,-1.24128 0.49978,-1.86352 -0.69423,0.24908 -1.37882,0.5017 -2.05391,0.75293 -0.0338,0.0126 -0.0675,0.0251 -0.10124,0.0377 -0.65446,0.23423 -1.30488,0.47092 -1.9518,0.70786 0.52198,0.36883 1.04405,0.73781 1.56487,1.10761 0.46872,0.33279 0.93643,0.66625 1.40217,1.00086 0.0518,0.0372 0.10349,0.0743 0.15525,0.11159 z m -0.9281,3.74681 c -0.51842,-0.36915 -1.03862,-0.73767 -1.55931,-1.10625 -0.52066,-0.36859 -1.04181,-0.73724 -1.5621,-1.1066 -0.15754,0.61834 -0.31621,1.23672 -0.47747,1.85519 -0.16126,0.61846 -0.32514,1.237 -0.49308,1.85564 0.69101,-0.24713 1.3771,-0.49723 2.0589,-0.74776 0.68177,-0.25051 1.35924,-0.50144 2.03306,-0.75022 z m -3.13773,-2.25728 c 0.15748,-0.61832 0.31385,-1.23659 0.4706,-1.85483 0.15678,-0.61827 0.31394,-1.23651 0.47294,-1.85476 -0.68096,0.24941 -1.35804,0.4991 -2.0319,0.74651 -0.67387,0.24743 -1.34451,0.49257 -2.01255,0.73287 0.51157,0.37493 1.02665,0.7478 1.54391,1.11928 0.51726,0.37147 1.0367,0.74156 1.557,1.11093 z m -0.95423,3.75526 c -0.52307,-0.37151 -1.04452,-0.74462 -1.56303,-1.11999 -0.51847,-0.37537 -1.03402,-0.75301 -1.54529,-1.13357 -0.17133,0.61391 -0.34783,1.22751 -0.53099,1.84085 -0.18316,0.61332 -0.37297,1.22636 -0.57093,1.83915 0.71327,-0.22494 1.42034,-0.458 2.12185,-0.6966 0.70148,-0.23859 1.3974,-0.48272 2.08839,-0.72984 z m -3.12362,-2.2983 c 0.17116,-0.61387 0.33716,-1.22805 0.49947,-1.84256 0.16235,-0.61452 0.32101,-1.22939 0.47747,-1.84461 -0.66801,0.24029 -1.33343,0.47573 -1.99687,0.70376 -0.66346,0.22805 -1.32497,0.44867 -1.98514,0.65933 0.48877,0.39498 0.98446,0.78571 1.48574,1.17284 0.50129,0.38712 1.00817,0.77064 1.51933,1.15124 z m -1.08662,3.72474 c -0.51531,-0.38784 -1.0256,-0.77949 -1.52951,-1.1756 -0.50388,-0.39612 -1.00141,-0.79671 -1.49126,-1.20243 -0.2026,0.60292 -0.41443,1.20519 -0.63697,1.80683 -0.22255,0.60163 -0.4558,1.20262 -0.70125,1.80299 0.7406,-0.18224 1.47374,-0.37772 2.20004,-0.58388 0.72627,-0.20615 1.44571,-0.42298 2.15895,-0.64791 z m -3.03369,-2.42342 c 0.20232,-0.60285 0.39542,-1.20638 0.58078,-1.8106 0.1854,-0.60423 0.36306,-1.20916 0.53446,-1.8148 -0.66014,0.21065 -1.31895,0.41132 -1.97706,0.59946 -0.65814,0.18814 -1.31558,0.36374 -1.97297,0.52424 0.45355,0.42901 0.91743,0.85154 1.39034,1.26827 0.4729,0.41673 0.95483,0.82766 1.44445,1.23343 z m -1.3253,3.65521 c -0.49516,-0.41813 -0.98186,-0.84227 -1.45877,-1.27309 -0.47689,-0.43083 -0.944,-0.86833 -1.4,-1.31317 -0.0155,0.036 -0.031,0.0721 -0.0466,0.10812 -0.23763,0.54916 -0.48912,1.09572 -0.7537,1.63956 -0.28192,0.57952 -0.57869,1.15595 -0.88934,1.72911 0.74482,-0.10472 1.48961,-0.22822 2.23378,-0.37199 0.0233,-0.005 0.0466,-0.009 0.0699,-0.0141 0.75614,-0.1532 1.50418,-0.3222 2.24476,-0.50444 z m -2.86798,-2.63261 c 0.25096,-0.5853 0.48866,-1.17162 0.71458,-1.75898 0.22593,-0.58738 0.44008,-1.17581 0.64391,-1.76532 -0.65735,0.16049 -1.31464,0.30588 -1.97251,0.4336 -0.0203,0.004 -0.0405,0.007 -0.0607,0.0118 -0.62689,0.12651 -1.25884,0.23456 -1.89529,0.32563 0.40191,0.47216 0.81651,0.93806 1.24459,1.39714 0.40172,0.4308 0.81531,0.85559 1.24143,1.27391 0.028,0.0275 0.056,0.0549 0.0841,0.0823 z m -1.68041,3.52314 c -0.45782,-0.46512 -0.90178,-0.93699 -1.33267,-1.41505 -0.43086,-0.47806 -0.84866,-0.96231 -1.2542,-1.4522 -0.31153,0.55446 -0.63619,1.10583 -0.97302,1.65396 -0.33683,0.54814 -0.68583,1.09305 -1.04603,1.63455 0.766,-0.0345 1.53327,-0.0858 2.30116,-0.15548 0.76784,-0.0697 1.53632,-0.15773 2.30476,-0.26578 z m -2.5911,-2.91424 c 0.31113,-0.55441 0.6091,-1.1119 0.89298,-1.67232 0.28391,-0.56043 0.55372,-1.12378 0.80846,-1.6899 -0.65662,0.094 -1.31802,0.16981 -1.98354,0.2292 -0.66554,0.0594 -1.33521,0.10232 -2.00834,0.13038 0.35936,0.51021 0.72938,1.01592 1.11086,1.51655 0.38146,0.50062 0.7744,0.99618 1.17958,1.48609 z m -2.01482,3.3355 c -0.40579,-0.50698 -0.79976,-1.01896 -1.18268,-1.53539 -0.38288,-0.51641 -0.75474,-1.03726 -1.11635,-1.56199 -0.35978,0.52602 -0.73001,1.04881 -1.10974,1.56823 -0.37972,0.51942 -0.76894,1.03547 -1.16669,1.54798 0.75832,0.0261 1.51921,0.0387 2.28202,0.036 0.76278,-0.003 1.52748,-0.0204 2.29344,-0.0549 z m -2.29911,-3.14466 c 0.35943,-0.52601 0.70842,-1.05524 1.04597,-1.58754 0.33758,-0.5323 0.66375,-1.06766 0.97752,-1.60594 -0.67312,0.028 -1.34969,0.0413 -2.02909,0.0412 -0.67943,-5e-5 -1.36167,-0.0133 -2.04608,-0.0382 0.32362,0.53801 0.65587,1.07326 0.99755,1.60521 0.34168,0.53194 0.69279,1.06055 1.05413,1.5853 z m -2.27635,3.16349 c -0.36057,-0.5386 -0.71134,-1.08045 -1.0531,-1.62498 -0.34171,-0.54452 -0.67443,-1.09172 -0.99893,-1.64106 -0.39602,0.50026 -0.79982,0.99715 -1.21044,1.49052 -0.41061,0.49337 -0.82804,0.98323 -1.25132,1.46941 0.74545,0.0738 1.49476,0.13728 2.24729,0.18884 0.7525,0.0516 1.50822,0.0912 2.2665,0.11727 z m -2.04882,-3.31326 c 0.39576,-0.50027 0.78372,-1.00391 1.16294,-1.51075 0.37925,-0.50684 0.74975,-1.01689 1.11055,-1.52999 -0.68439,-0.0249 -1.37095,-0.0615 -2.05902,-0.10802 -0.68811,-0.0466 -1.37773,-0.10315 -2.06822,-0.16814 0.29469,0.55557 0.59598,1.11014 0.90467,1.66315 0.3087,0.553 0.62479,1.10444 0.94908,1.65375 z m -2.46497,3.00715 c -0.19008,-0.3304 -0.37745,-0.66132 -0.56229,-0.99264 -0.12764,-0.22986 -0.25431,-0.4599 -0.38007,-0.69012 -0.30672,-0.56153 -0.60805,-1.12411 -0.90498,-1.68762 -0.4191,0.47968 -0.84223,0.9574 -1.26847,1.4335 -0.42624,0.47611 -0.85558,0.95059 -1.28708,1.42378 0.72656,0.0951 1.4562,0.18642 2.18914,0.2723 0.51669,0.0605 1.03501,0.11836 1.55504,0.17283 0.21922,0.0235 0.43881,0.0462 0.65871,0.0679 z m -1.84185,-3.41731 c 0.41893,-0.4797 0.83383,-0.96136 1.24372,-1.44532 0.16806,-0.19841 0.33528,-0.3972 0.5016,-0.59641 0.23824,-0.2872 0.47421,-0.57555 0.70775,-0.86501 -0.2037,-0.0192 -0.40748,-0.0391 -0.61132,-0.0597 -0.49089,-0.0509 -0.98265,-0.10554 -1.47535,-0.16318 -0.69892,-0.0817 -1.39973,-0.16963 -2.10265,-0.26183 0.28324,0.56683 0.56888,1.13294 0.85793,1.69821 0.28904,0.56527 0.58148,1.12971 0.87832,1.6932 z m -2.56104,2.90421 c -0.29506,-0.56826 -0.58642,-1.13711 -0.87506,-1.70641 -0.28862,-0.5693 -0.57452,-1.13908 -0.8587,-1.70922 -0.42982,0.47022 -0.86121,0.93968 -1.29323,1.4087 -0.43203,0.46904 -0.86469,0.93764 -1.29704,1.40617 0.7151,0.10283 1.43285,0.20549 2.15346,0.30621 0.72059,0.10072 1.44404,0.19949 2.17057,0.29455 z m -1.72722,-3.46243 c 0.42974,-0.47022 0.85789,-0.94121 1.28352,-1.4133 0.42567,-0.47208 0.84881,-0.94527 1.26849,-1.4199 -0.70288,-0.0922 -1.40789,-0.18875 -2.1152,-0.28788 -0.70736,-0.0991 -1.41703,-0.20082 -2.12925,-0.30333 0.28131,0.57119 0.56233,1.14223 0.84408,1.713 0.28174,0.57077 0.56419,1.14128 0.84836,1.71141 z m -2.59681,2.86167 c -0.28274,-0.57136 -0.56447,-1.14273 -0.84617,-1.71399 -0.28167,-0.57126 -0.5633,-1.14241 -0.84591,-1.71337 -0.43109,0.46907 -0.8613,0.93858 -1.28967,1.40887 -0.42837,0.47029 -0.8549,0.94135 -1.27867,1.41352 0.70537,0.0965 1.41294,0.1963 2.12295,0.29771 0.70999,0.10142 1.4224,0.20442 2.13747,0.30726 z m -1.6854,-3.47415 c 0.43109,-0.46908 0.86308,-0.93771 1.295,-1.40626 0.43196,-0.46855 0.86386,-0.93699 1.29477,-1.40567 -0.71218,-0.1025 -1.4269,-0.20582 -2.14438,-0.30817 -0.71751,-0.10236 -1.43777,-0.20376 -2.16101,-0.30243 0.29054,0.56975 0.57811,1.13989 0.86371,1.71035 0.28561,0.57045 0.56924,1.14121 0.85191,1.71218 z m -2.57502,2.86918 c -0.28159,-0.56864 -0.56485,-1.1367 -0.85076,-1.70411 -0.28589,-0.5674 -0.57443,-1.13413 -0.86661,-1.70008 -0.42294,0.47625 -0.84251,0.95415 -1.2578,1.43402 -0.35352,0.40851 -0.70393,0.81845 -1.05063,1.23003 -0.0609,0.0718 -0.12171,0.14364 -0.18245,0.21551 0.0522,0.006 0.10446,0.0116 0.15668,0.0174 0.64574,0.0713 1.29302,0.14829 1.94203,0.22973 0.70111,0.0879 1.40421,0.18107 2.10954,0.27753 z m -1.71149,-3.45109 c 0.42301,-0.47624 0.84938,-0.95086 1.27816,-1.42419 0.4288,-0.47333 0.86004,-0.94535 1.29273,-1.41643 -0.7232,-0.0987 -1.44937,-0.19459 -2.17872,-0.28604 -0.67516,-0.0846 -1.35305,-0.16544 -2.03384,-0.24099 -0.0543,-0.006 -0.10866,-0.0119 -0.16299,-0.0179 0.0458,0.0836 0.0915,0.16713 0.13722,0.25072 0.26328,0.47908 0.52258,0.95885 0.7785,1.43927 0.30064,0.56432 0.59662,1.12952 0.88894,1.69549 z m -2.49676,2.92646 c -0.294,-0.56085 -0.59169,-1.12076 -0.89292,-1.67976 -0.3012,-0.559 -0.60593,-1.11709 -0.91403,-1.6743 -0.40905,0.48795 -0.81491,0.97728 -1.21771,1.46792 -0.4028,0.49063 -0.80256,0.9826 -1.19942,1.47582 0.70553,0.0596 1.41032,0.12346 2.11436,0.19175 0.704,0.0683 1.40726,0.14104 2.10972,0.21857 z m -1.80241,-3.40108 c 0.40913,-0.48795 0.82145,-0.97453 1.23713,-1.45969 0.41572,-0.48516 0.8348,-0.9689 1.25738,-1.45117 -0.73065,-0.0796 -1.46124,-0.1544 -2.19174,-0.22463 -0.73052,-0.0703 -1.46094,-0.13593 -2.19125,-0.19735 0.32105,0.55376 0.63905,1.10835 0.95386,1.66382 0.3148,0.55547 0.62639,1.1118 0.93462,1.66902 z m -2.42167,2.99076 c -0.30866,-0.55287 -0.62058,-1.10491 -0.93559,-1.65615 -0.31499,-0.55123 -0.63307,-1.10167 -0.95408,-1.65133 -0.39737,0.49728 -0.79195,0.99574 -1.18389,1.49535 -0.39194,0.4996 -0.78125,1.00033 -1.16809,1.50215 0.70836,0.0441 1.41603,0.0917 2.12299,0.14332 0.70693,0.0516 1.41317,0.10702 2.11866,0.16666 z m -1.88624,-3.35458 c 0.39744,-0.49728 0.79765,-0.99336 1.20082,-1.48822 0.4032,-0.49485 0.80935,-0.98847 1.21861,-1.4808 -0.73028,-0.0615 -1.46042,-0.11859 -2.19043,-0.1718 -0.73003,-0.0532 -1.45992,-0.10242 -2.18963,-0.14799 0.3322,0.54664 0.6618,1.09401 0.98863,1.64213 0.32682,0.54813 0.65088,1.09702 0.972,1.64668 z m -2.35541,3.0446 c -0.32152,-0.5459 -0.64586,-1.09108 -0.97286,-1.63556 -0.32696,-0.54449 -0.65659,-1.08828 -0.9887,-1.6314 -0.38728,0.50529 -0.77218,1.01158 -1.15486,1.51882 -0.38268,0.50724 -0.76313,1.01543 -1.14151,1.52452 0.71096,0.0308 1.4213,0.0647 2.13097,0.10189 0.70965,0.0371 1.41865,0.0777 2.12696,0.12173 z m -1.95908,-3.31412 c 0.38731,-0.50529 0.77703,-1.00957 1.16927,-1.51281 0.39227,-0.50323 0.78708,-1.0054 1.18459,-1.50648 -0.72967,-0.0455 -1.45918,-0.0875 -2.18848,-0.12593 -0.72933,-0.0385 -1.45846,-0.0736 -2.18736,-0.10563 0.34155,0.54053 0.68093,1.08168 1.01799,1.62347 0.33704,0.54181 0.67176,1.08426 1.00399,1.62738 z m -2.29885,3.0905 c -0.33258,-0.53994 -0.66754,-1.07927 -1.00472,-1.61801 -0.33715,-0.53873 -0.67653,-1.07689 -1.01795,-1.61447 -0.37878,0.51198 -0.7556,1.02477 -1.13059,1.53833 -0.375,0.51356 -0.74818,1.02789 -1.11971,1.54294 0.71337,0.0199 1.42615,0.0423 2.13833,0.0674 0.71216,0.0251 1.42372,0.053 2.13464,0.0838 z m -2.02099,-3.2797 c 0.37881,-0.51198 0.75959,-1.02314 1.1425,-1.53343 0.38294,-0.51029 0.768,-1.01971 1.15536,-1.52822 -0.72887,-0.032 -1.45751,-0.0609 -2.1859,-0.087 -0.72842,-0.0261 -1.45659,-0.0494 -2.18447,-0.0703 0.3491,0.53542 0.69646,1.07135 1.04194,1.60783 0.34547,0.53649 0.68904,1.07351 1.03057,1.61111 z m -2.25198,3.12849 c -0.34182,-0.535 -0.68561,-1.06948 -1.03117,-1.60349 -0.34554,-0.534 -0.69285,-1.06753 -1.04179,-1.60059 -0.37187,0.51735 -0.74218,1.03533 -1.11109,1.5539 -0.36891,0.51857 -0.73642,1.03771 -1.10267,1.55739 0.71554,0.0114 1.43057,0.0246 2.14505,0.04 0.71445,0.0154 1.42835,0.0329 2.14167,0.0529 z m -2.07192,-3.25134 c 0.37188,-0.51735 0.74533,-1.03407 1.12049,-1.5501 0.3752,-0.51603 0.75211,-1.03138 1.1309,-1.54599 -0.72785,-0.0208 -1.45542,-0.0391 -2.18269,-0.0552 -0.72729,-0.0161 -1.45428,-0.0299 -2.18094,-0.0418 0.35485,0.53131 0.70839,1.06306 1.06049,1.59523 0.35209,0.53218 0.70272,1.06479 1.05175,1.59786 z m -2.2148,3.15855 c -0.34929,-0.53104 -0.70009,-1.06169 -1.05223,-1.59198 -0.35212,-0.53028 -0.70558,-1.06019 -1.06022,-1.58975 -0.36655,0.52141 -0.73196,1.04327 -1.09637,1.56552 -0.36441,0.52226 -0.72783,1.04491 -1.09041,1.56791 0.71752,0.006 1.43458,0.0115 2.15114,0.0194 0.71653,0.008 1.43257,0.0175 2.14809,0.0289 z m -2.11192,-3.229 c 0.36656,-0.52142 0.73426,-1.04237 1.10328,-1.56282 0.36904,-0.52046 0.73939,-1.04042 1.1112,-1.55982 -0.72662,-0.0119 -1.45292,-0.0219 -2.17884,-0.0303 -0.72596,-0.008 -1.45157,-0.0151 -2.17678,-0.0205 0.35878,0.52824 0.71672,1.05679 1.07363,1.58567 0.35691,0.52888 0.7128,1.05809 1.06751,1.58765 z m -2.18731,3.1807 c -0.35494,-0.52812 -0.71096,-1.05596 -1.06789,-1.58352 -0.35689,-0.52757 -0.71469,-1.05487 -1.07324,-1.58193 -0.36282,0.52414 -0.7249,1.04855 -1.08641,1.57318 -0.36151,0.52463 -0.72243,1.04947 -1.08293,1.57447 0.7193,9.3e-4 1.43818,0.003 2.15661,0.006 0.7184,0.003 1.43636,0.006 2.15386,0.0118 z m -2.14093,-3.21274 c 0.36281,-0.52414 0.72636,-1.04803 1.09082,-1.57159 0.36448,-0.52357 0.72984,-1.04681 1.09628,-1.56969 -0.72519,-0.006 -1.44999,-0.009 -2.17438,-0.0123 -0.72441,-0.003 -1.44842,-0.005 -2.17198,-0.006 0.36093,0.52617 0.72144,1.05254 1.08138,1.57914 0.35992,0.52658 0.71927,1.0534 1.07788,1.58046 z m -2.16954,3.19494 c -0.35879,-0.52621 -0.71822,-1.05223 -1.07813,-1.57809 -0.35987,-0.52587 -0.72021,-1.05157 -1.08086,-1.57714 -0.36069,0.52557 -0.72104,1.05121 -1.08124,1.57689 -0.36018,0.52568 -0.7202,1.05138 -1.0802,1.57707 0.72085,-3.9e-4 1.44133,-6.7e-4 2.16143,-5.5e-4 0.72007,1.1e-4 1.43974,6.2e-4 2.159,0.002 z m -2.15899,-3.20252 c 0.36066,-0.52557 0.72166,-1.05106 1.08313,-1.57641 0.36151,-0.52535 0.72351,-1.05057 1.08614,-1.57561 -0.72354,-9.3e-4 -1.44663,-0.002 -2.16927,-9.3e-4 -0.72265,1e-4 -1.44485,7e-4 -2.16656,0.002 0.36128,0.52511 0.72258,1.05031 1.08372,1.57562 0.36115,0.52532 0.72215,1.05075 1.08284,1.57632 z m -2.16144,3.20125 c -0.36085,-0.52529 -0.7219,-1.05051 -1.08297,-1.57568 -0.36104,-0.52518 -0.72213,-1.0503 -1.08308,-1.57539 -0.36014,0.52567 -0.72037,1.05124 -1.08083,1.57666 -0.36046,0.52541 -0.72116,1.05067 -1.08226,1.57573 0.72219,3.4e-4 1.44408,2.1e-4 2.16563,-1e-4 0.72151,-3.2e-4 1.44269,-8.2e-4 2.16351,-9.3e-4 z m -2.1661,-3.19834 c 0.36011,-0.52567 0.72013,-1.05145 1.08022,-1.57728 0.36013,-0.52581 0.72034,-1.0517 1.08076,-1.57757 -0.72167,7.7e-4 -1.44285,0.002 -2.16351,0.003 -0.7207,8.4e-4 -1.44087,0.002 -2.16051,0.002 0.35981,0.52506 0.72009,1.0501 1.08065,1.57516 0.36056,0.52505 0.72141,1.0501 1.08239,1.57519 z"
       id="path23" />
  </g>
</svg>
