<?xml version="1.0" encoding="UTF-8" standalone="no"?>
<!-- Created with Inkscape (http://www.inkscape.org/) -->

<svg
   width="1152.4194"
   height="142.39655"
   viewBox="0 0 304.91097 37.675753"
   version="1.1"
   id="svg1"
   inkscape:version="1.3.2 (091e20e, 2023-11-25, custom)"
   sodipodi:docname="drawing.svg"
   xmlns:inkscape="http://www.inkscape.org/namespaces/inkscape"
   xmlns:sodipodi="http://sodipodi.sourceforge.net/DTD/sodipodi-0.dtd"
   xmlns="http://www.w3.org/2000/svg"
   xmlns:svg="http://www.w3.org/2000/svg">
  <sodipodi:namedview
     id="namedview1"
     pagecolor="#4f4f4f"
     bordercolor="#eeeeee"
     borderopacity="1"
     inkscape:showpageshadow="0"
     inkscape:pageopacity="0"
     inkscape:pagecheckerboard="0"
     inkscape:deskcolor="#3d3d3d"
     inkscape:document-units="px"
     inkscape:zoom="0.48413292"
     inkscape:cx="571.12415"
     inkscape:cy="436.8635"
     inkscape:window-width="1366"
     inkscape:window-height="705"
     inkscape:window-x="-8"
     inkscape:window-y="-8"
     inkscape:window-maximized="1"
     inkscape:current-layer="layer1" />
  <defs
     id="defs1" />
  <g
     inkscape:label="Layer 1"
     inkscape:groupmode="layer"
     id="layer1"
     transform="translate(-16.877777,-143.35155)">
    <path
       style="fill:#ffffff;fill-opacity:1;stroke:none;stroke-width:0.979682;stroke-dasharray:none;stroke-opacity:1"
       d="m 321.78663,176.69074 c -0.52438,0.36491 -1.04925,0.72803 -1.57441,1.09004 -0.52517,0.36199 -1.05061,0.72286 -1.57613,1.08331 0.52535,0.36073 1.05049,0.72183 1.57554,1.08259 0.52505,0.36077 1.04999,0.72121 1.57494,1.08062 5.6e-4,-0.71881 0.002,-1.43967 0.002,-2.16248 4.3e-4,-0.72278 1.7e-4,-1.4475 -0.002,-2.17408 z m -3.19782,2.17334 c -0.52535,-0.36068 -1.0509,-0.72098 -1.57676,-1.08019 -0.52586,-0.35925 -1.05203,-0.71741 -1.57861,-1.07378 0.002,0.71592 0.003,1.4337 0.003,2.15324 10e-5,0.71958 -2.1e-4,1.44093 3.5e-4,2.16395 0.52495,-0.36151 1.05025,-0.72208 1.5757,-1.08239 0.52544,-0.36031 1.05103,-0.72036 1.57654,-1.08083 z m 3.15083,-6.55429 c -0.51762,0.37739 -1.03651,0.7512 -1.55645,1.1221 -0.51995,0.37088 -1.04096,0.73885 -1.56282,1.1046 0.52895,0.35545 1.05722,0.71316 1.58489,1.07244 0.52768,0.35927 1.05477,0.72011 1.58137,1.08181 -0.002,-0.7266 -0.006,-1.45506 -0.0138,-2.18527 -0.007,-0.73017 -0.0181,-1.4621 -0.0332,-2.19568 z m -3.16655,2.22717 c -0.52895,-0.35535 -1.0586,-0.70842 -1.58904,-1.05851 -0.53044,-0.35012 -1.06168,-0.69726 -1.59382,-1.04072 0.0139,0.70805 0.0236,1.41816 0.0304,2.13025 0.007,0.71211 0.0106,1.42619 0.0128,2.14213 0.5244,-0.35957 1.04839,-0.72 1.57173,-1.08197 0.52335,-0.36196 1.04606,-0.72547 1.56792,-1.09118 z m 3.01173,-6.64777 c -0.50521,0.39685 -1.01247,0.78833 -1.52156,1.17511 -0.5091,0.38675 -1.02004,0.7688 -1.5326,1.14684 0.53705,0.34239 1.07293,0.68894 1.60772,1.03895 0.53479,0.35001 1.06851,0.70348 1.60126,1.0597 -0.0151,-0.73361 -0.0348,-1.46887 -0.0601,-2.20569 -0.0254,-0.73678 -0.0565,-1.47512 -0.0947,-2.21491 z m -3.10138,2.32355 c -0.53704,-0.34223 -1.07527,-0.6803 -1.61478,-1.01349 -0.53951,-0.33323 -1.0803,-0.66158 -1.62249,-0.98435 0.0358,0.69939 0.0648,1.40105 0.0884,2.10488 0.0236,0.70385 0.0417,1.40987 0.0556,2.11795 0.51822,-0.36463 1.03524,-0.7319 1.55084,-1.1025 0.51561,-0.37061 1.0298,-0.74454 1.54237,-1.12249 z m 2.78301,-6.77546 c -0.10224,0.0861 -0.20448,0.17186 -0.30668,0.25731 -0.38765,0.33371 -0.77705,0.66298 -1.1681,0.98817 -0.49261,0.4096 -0.98783,0.81272 -1.48545,1.21002 0.54963,0.32156 1.0976,0.64918 1.644,0.98215 0.54639,0.33297 1.09123,0.67129 1.6346,1.01426 -0.0382,-0.73982 -0.0833,-1.4811 -0.13683,-2.22373 -0.048,-0.66605 -0.1026,-1.33319 -0.16482,-2.00135 -0.005,-0.0754 -0.011,-0.15105 -0.0167,-0.22683 z m -3.00735,2.45891 c -0.54962,-0.32135 -1.10091,-0.63664 -1.65397,-0.94517 -0.43905,-0.24494 -0.87921,-0.48562 -1.32055,-0.72168 -0.11614,-0.0625 -0.23242,-0.12483 -0.34883,-0.1869 0.008,0.0724 0.0169,0.14486 0.0254,0.21738 0.0591,0.61928 0.11084,1.24053 0.15615,1.86368 0.0505,0.69481 0.0931,1.39197 0.12884,2.0914 0.50639,-0.37666 1.01081,-0.75776 1.51304,-1.14398 0.50222,-0.38623 1.00226,-0.77758 1.49989,-1.17473 z m 2.46618,-7.01392 c -0.45562,0.47595 -0.92166,0.93582 -1.3946,1.38299 -0.47294,0.44714 -0.95277,0.88158 -1.436,1.3067 0.57036,0.29818 1.13765,0.60577 1.70018,0.91818 0.56252,0.31241 1.12029,0.62964 1.67159,0.94714 -0.0553,-0.7351 -0.12327,-1.48543 -0.21104,-2.2462 -0.0878,-0.76075 -0.1954,-1.53194 -0.33013,-2.30881 z m -2.878,2.6954 c -0.57034,-0.29788 -1.14373,-0.58632 -1.71845,-0.86076 -0.57473,-0.27447 -1.1508,-0.53493 -1.72652,-0.77683 0.10544,0.65876 0.19777,1.33317 0.28425,2.01847 0.0865,0.68533 0.16713,1.38155 0.24919,2.08389 0.4826,-0.40123 0.96887,-0.80499 1.4553,-1.21465 0.48643,-0.40968 0.97301,-0.82526 1.45623,-1.25012 z m 1.68603,-7.38673 c -0.35841,0.55756 -0.73782,1.09085 -1.13472,1.60323 -0.3969,0.51235 -0.81129,1.0038 -1.23964,1.47772 0.59615,0.22974 1.19255,0.48186 1.7875,0.75178 0.59496,0.26992 1.18846,0.55764 1.77883,0.8586 -0.13474,-0.7769 -0.2966,-1.55949 -0.49285,-2.34299 -0.19623,-0.78346 -0.42685,-1.56783 -0.69912,-2.34834 z m -2.42045,3.09193 c -0.59593,-0.22912 -1.19158,-0.43582 -1.78526,-0.61556 -0.59369,-0.17976 -1.18539,-0.33256 -1.77343,-0.4538 0.18696,0.57705 0.34627,1.17929 0.4852,1.80196 0.13894,0.6227 0.2575,1.26583 0.36294,1.92461 0.47027,-0.41689 0.93363,-0.84451 1.38656,-1.28626 0.45293,-0.44174 0.89543,-0.8976 1.32399,-1.37095 z m 0.22805,-7.69116 c -0.001,0.005 -0.002,0.01 -0.004,0.0148 -0.20332,0.65722 -0.43773,1.28243 -0.69981,1.87896 -0.26401,0.60085 -0.55607,1.17258 -0.87269,1.71858 0.62322,0.0999 1.25,0.23509 1.87865,0.40108 0.62865,0.166 1.25918,0.36277 1.88987,0.58575 -0.27228,-0.78055 -0.58621,-1.55724 -0.94906,-2.3253 -0.36153,-0.76526 -0.77162,-1.52194 -1.23746,-2.26534 -0.002,-0.003 -0.004,-0.006 -0.006,-0.008 z m -1.6184,3.63247 c -0.62278,-0.0989 -1.24197,-0.16247 -1.85586,-0.18607 -0.60948,-0.0234 -1.21374,-0.007 -1.81112,0.0522 -0.004,6e-4 -0.008,9.3e-4 -0.0122,0.002 9.1e-4,0.002 0.002,0.003 0.003,0.005 0.32514,0.45579 0.60842,0.94604 0.85703,1.46604 0.24954,0.52191 0.46415,1.07379 0.65112,1.65086 0.40107,-0.45584 0.78464,-0.93061 1.1472,-1.42771 0.36257,-0.49709 0.70412,-1.01651 1.02114,-1.56162 z m -2.38281,-7.52445 c 0.10447,0.6907 0.15601,1.37229 0.1551,2.0372 -9.3e-4,0.66487 -0.0543,1.31306 -0.15973,1.937 0.62038,-0.12477 1.26686,-0.19841 1.93574,-0.21432 0.66887,-0.0159 1.36015,0.0259 2.0701,0.1321 -0.54355,-0.79142 -1.15741,-1.51401 -1.82862,-2.16396 -0.67119,-0.64993 -1.39971,-1.22721 -2.17259,-1.72802 z m -0.0373,4.00789 c -0.61918,0.12592 -1.21224,0.30288 -1.77546,0.52429 -0.56324,0.22139 -1.09664,0.48722 -1.59649,0.79087 0.43571,0.27324 0.83828,0.58487 1.19474,0.93103 0.35647,0.34618 0.66683,0.72689 0.91809,1.13834 0.31255,-0.49525 0.57406,-1.02997 0.78407,-1.59658 0.21001,-0.56662 0.36852,-1.16512 0.47505,-1.78795 z m -5.02872,-6.06465 c 0.34573,0.60524 0.63945,1.2222 0.88163,1.84327 0.24214,0.62107 0.43275,1.24627 0.57229,1.86803 0.53063,-0.35283 1.09942,-0.67153 1.70267,-0.94949 0.60325,-0.27797 1.24096,-0.51518 1.9094,-0.70505 -0.77291,-0.50083 -1.5902,-0.92521 -2.43888,-1.26928 -0.84864,-0.34405 -1.72867,-0.60782 -2.62711,-0.78748 z m 1.43632,3.75514 c -0.52926,0.35341 -1.02034,0.74087 -1.46953,1.15577 -0.44921,0.41489 -0.85652,0.85722 -1.21823,1.32039 0.51637,0.10448 1.02555,0.25498 1.51457,0.44766 0.48903,0.19269 0.95791,0.42759 1.39364,0.70085 0.0641,-0.57692 0.0781,-1.17247 0.0415,-1.77911 -0.0366,-0.60663 -0.12376,-1.22434 -0.26198,-1.84556 z m -6.65577,-3.95583 c 0.4693,0.48247 0.91039,0.97886 1.31968,1.48841 0.40926,0.50954 0.78673,1.03223 1.12884,1.5673 0.32832,-0.44523 0.6836,-0.8814 1.06774,-1.30699 0.0582,-0.0627 0.11726,-0.12495 0.17705,-0.18683 0.46343,-0.47968 0.97338,-0.93561 1.52614,-1.3612 -0.50721,-0.10142 -1.02028,-0.17604 -1.53688,-0.22315 -0.37808,-0.0305 -0.7547,-0.0505 -1.12961,-0.0606 -0.86087,-0.023 -1.71277,0.006 -2.55296,0.083 z m 2.44695,3.10278 c -0.37586,0.51118 -0.71621,1.0343 -1.02395,1.56714 -0.30776,0.53282 -0.58289,1.07535 -0.82829,1.62534 0.58915,-0.0586 1.17267,-0.0784 1.74781,-0.0537 0.25047,0.0107 0.49936,0.03 0.74643,0.0581 0.29376,0.029 0.58755,0.0733 0.87906,0.13226 -0.15468,-0.56765 -0.35857,-1.13312 -0.61213,-1.68886 -0.0327,-0.0716 -0.0662,-0.14323 -0.10063,-0.21459 -0.241,-0.48429 -0.51122,-0.95971 -0.8083,-1.42576 z m -7.3255,-2.12957 c 0.54773,0.38373 1.07722,0.78246 1.58491,1.19542 0.50765,0.41296 0.9935,0.84014 1.45398,1.28078 0.24614,-0.58788 0.52059,-1.17076 0.82624,-1.74641 0.30565,-0.57565 0.64249,-1.14406 1.01342,-1.703 -0.84023,0.0765 -1.66874,0.19974 -2.48277,0.36392 -0.81399,0.16416 -1.6135,0.36923 -2.39578,0.60929 z m 3.04854,2.52247 c -0.24531,0.58773 -0.46233,1.18044 -0.65396,1.77587 -0.19166,0.59545 -0.35791,1.19361 -0.50165,1.79225 0.60059,-0.18973 1.20108,-0.35257 1.79871,-0.48263 0.59766,-0.13007 1.19245,-0.22734 1.78162,-0.28591 -0.34377,-0.49141 -0.7201,-0.97094 -1.12542,-1.43779 -0.40531,-0.46685 -0.8396,-0.92104 -1.2993,-1.36179 z m -7.51528,-0.71582 c 0.3154,0.16169 0.62798,0.32674 0.93731,0.49554 0.26171,0.14203 0.52129,0.28735 0.77838,0.43589 0.56058,0.3239 1.10934,0.6631 1.64272,1.01683 0.1387,-0.62484 0.29849,-1.25166 0.48225,-1.87823 0.18377,-0.62657 0.3915,-1.25288 0.62608,-1.87668 -0.78231,0.24006 -1.54737,0.51512 -2.29244,0.81927 -0.54334,0.2218 -1.07604,0.45907 -1.59703,0.70952 -0.19386,0.0915 -0.38626,0.1841 -0.57727,0.27786 z m 3.37617,1.99228 c -0.13813,0.62458 -0.25521,1.24715 -0.35411,1.86547 -0.0454,0.28356 -0.0869,0.56622 -0.12491,0.84778 -0.0445,0.33352 -0.0841,0.66642 -0.11935,0.99885 0.15962,-0.077 0.3194,-0.15216 0.47938,-0.22545 0.43224,-0.1933 0.86696,-0.37774 1.30309,-0.55102 0.59806,-0.2376 1.19878,-0.45423 1.7994,-0.64397 -0.45688,-0.4089 -0.93633,-0.80484 -1.43477,-1.18704 -0.49844,-0.38219 -1.01588,-0.75066 -1.54873,-1.10462 z m -7.4055,0.2209 c 0.59122,0.2584 1.17974,0.52078 1.76276,0.7896 0.583,0.26884 1.1605,0.54411 1.72973,0.82826 0.0607,-0.63332 0.13338,-1.26857 0.22166,-1.90675 0.0883,-0.63818 0.19216,-1.27927 0.31518,-1.92429 -0.70556,0.34637 -1.39204,0.70787 -2.06256,1.07868 -0.67049,0.3708 -1.32504,0.75089 -1.96677,1.1345 z m 3.51537,1.65914 c -0.0604,0.63314 -0.10872,1.26436 -0.14867,1.89466 -0.04,0.63032 -0.0715,1.25972 -0.0983,1.88918 0.59409,-0.3585 1.18392,-0.70426 1.77264,-1.03149 0.58875,-0.32725 1.17638,-0.63595 1.76605,-0.92029 -0.5246,-0.32966 -1.06306,-0.64553 -1.61261,-0.95005 -0.54956,-0.30453 -1.1102,-0.59773 -1.67915,-0.88201 z m -7.23737,0.63796 c 0.57862,0.25974 1.16141,0.51598 1.74562,0.77116 0.58417,0.25521 1.16975,0.50934 1.75395,0.76488 0.0284,-0.63702 0.0587,-1.2743 0.0946,-1.91283 0.0359,-0.63853 0.0773,-1.2783 0.12785,-1.92031 -0.64177,0.38361 -1.27073,0.77072 -1.89002,1.15552 -0.61927,0.38478 -1.22888,0.76724 -1.83198,1.14158 z m 3.52458,1.5762 c -0.0283,0.63698 -0.0546,1.27372 -0.0826,1.91122 -0.028,0.63751 -0.0576,1.27578 -0.0924,1.91579 0.6237,-0.38618 1.23685,-0.77125 1.8426,-1.14939 0.60578,-0.37817 1.20416,-0.74942 1.79827,-1.10794 -0.5674,-0.27095 -1.14177,-0.53559 -1.72035,-0.79639 -0.57857,-0.26081 -1.16133,-0.51776 -1.74551,-0.77329 z m -7.0919,0.51585 c 0.42794,0.24083 0.86216,0.47495 1.3012,0.7024 0.1213,0.0621 0.24301,0.12379 0.36511,0.18507 0.56405,0.28314 1.13641,0.55772 1.71429,0.82622 0.0425,-0.63581 0.0769,-1.27019 0.10685,-1.90415 0.0299,-0.63396 0.0554,-1.26749 0.0799,-1.90159 -0.60312,0.37436 -1.19972,0.74059 -1.79295,1.09289 -0.3608,0.21425 -0.72034,0.42336 -1.07935,0.62599 -0.23122,0.12624 -0.46292,0.25073 -0.69502,0.37317 z m 3.40468,1.75437 c -0.0427,0.63591 -0.0934,1.27326 -0.15587,1.91303 -0.0135,0.13848 -0.0276,0.27708 -0.0422,0.41581 -0.053,0.50478 -0.11424,1.01229 -0.18491,1.52191 0.2665,-0.14636 0.53021,-0.29525 0.79109,-0.44635 0.40492,-0.2279 0.80407,-0.45885 1.19815,-0.69153 0.64797,-0.3826 1.28225,-0.7699 1.90597,-1.15608 -0.58891,-0.25383 -1.17791,-0.50883 -1.7642,-0.76749 -0.58629,-0.25865 -1.16988,-0.52093 -1.74799,-0.7893 z m -6.98292,-0.0824 c 0.49048,0.37197 0.99938,0.73189 1.52369,1.07987 0.52429,0.34799 1.06399,0.68403 1.6161,1.00821 0.10352,-0.63184 0.18998,-1.26192 0.26214,-1.88901 0.0722,-0.62709 0.13002,-1.2512 0.17631,-1.87107 -0.59245,0.31252 -1.18757,0.61162 -1.7843,0.89205 -0.59671,0.28042 -1.19504,0.54216 -1.79394,0.77995 z m 3.15997,2.13109 c -0.10393,0.63203 -0.22494,1.26582 -0.36578,1.90014 -0.14086,0.63432 -0.30156,1.26917 -0.48483,1.90332 0.74854,-0.28655 1.48104,-0.60011 2.19647,-0.93543 0.71545,-0.33533 1.41383,-0.69242 2.09407,-1.066 -0.59005,-0.27683 -1.17375,-0.56535 -1.74807,-0.86566 -0.57432,-0.30031 -1.13928,-0.61241 -1.69186,-0.93637 z m -6.75189,-1.03374 c 0.39991,0.45153 0.82644,0.8899 1.27658,1.31523 0.45012,0.42533 0.92384,0.83761 1.41817,1.23692 0.19427,-0.60509 0.36434,-1.21258 0.51295,-1.82124 0.14862,-0.60866 0.27577,-1.21849 0.38422,-1.82826 -0.59892,0.23781 -1.19842,0.45167 -1.79743,0.63632 -0.59899,0.18464 -1.1975,0.34007 -1.79449,0.46103 z m 2.70825,2.59734 c -0.19491,0.60524 -0.41405,1.20808 -0.66017,1.80728 -0.24615,0.59921 -0.51928,1.19478 -0.82213,1.78548 0.80847,-0.15739 1.60301,-0.35234 2.38257,-0.57957 0.77959,-0.22724 1.54419,-0.48678 2.29276,-0.77333 -0.5653,-0.34759 -1.11604,-0.70798 -1.64921,-1.08126 -0.53318,-0.37328 -1.04879,-0.75945 -1.54382,-1.1586 z m -6.29156,-2.30463 c 0.17223,0.30671 0.35233,0.61147 0.54085,0.91415 0.13159,0.222 0.26899,0.44149 0.41198,0.6585 0.34105,0.51764 0.71392,1.02111 1.11558,1.51051 0.31153,-0.55116 0.5917,-1.10889 0.84327,-1.67195 0.25157,-0.56305 0.47453,-1.13143 0.67163,-1.70392 -0.59701,0.12096 -1.19249,0.20745 -1.7854,0.25419 -0.42071,0.0331 -0.84013,0.0463 -1.25787,0.0376 -0.1797,0.003 -0.35971,0.004 -0.54004,9.3e-4 z m 2.07246,3.12997 c -0.31239,0.55128 -0.65617,1.09599 -1.03407,1.6329 -0.15845,0.22509 -0.32289,0.44882 -0.49354,0.67108 -0.23016,0.30305 -0.46814,0.60231 -0.7134,0.89792 0.23717,0.009 0.47524,0.0143 0.71422,0.0172 0.60533,-0.01 1.20456,-0.0427 1.79729,-0.0974 0.83534,-0.077 1.65779,-0.19686 2.4663,-0.35426 -0.50566,-0.43331 -0.98856,-0.88052 -1.4457,-1.34173 -0.45713,-0.46121 -0.8885,-0.93641 -1.2911,-1.42569 z m -5.84424,-3.54663 c 0.22153,0.57577 0.45916,1.14789 0.7156,1.71586 0.25641,0.56796 0.53163,1.13177 0.82836,1.69091 0.41462,-0.47833 0.80936,-0.9662 1.18155,-1.46432 0.37219,-0.49811 0.72184,-1.00647 1.04627,-1.52579 -0.62098,-0.009 -1.24568,-0.0512 -1.87426,-0.12232 -0.62856,-0.0711 -1.26101,-0.17083 -1.89752,-0.29434 z m 1.53866,3.45344 c -0.41521,0.47827 -0.85027,0.947 -1.30251,1.40691 -0.45227,0.45991 -0.92173,0.911 -1.40571,1.35398 0.77445,0.14204 1.55927,0.26086 2.35466,0.35154 0.79542,0.0907 1.60141,0.1532 2.41813,0.18266 -0.39442,-0.53846 -0.76187,-1.08262 -1.10506,-1.63198 -0.34319,-0.54935 -0.66213,-1.10389 -0.95951,-1.66311 z m -5.40811,-4.44011 c 0.17593,0.60474 0.36069,1.20805 0.55699,1.8094 0.19628,0.60133 0.4041,1.20072 0.62617,1.79763 0.47686,-0.42215 0.94093,-0.85111 1.38953,-1.2876 0.44861,-0.43649 0.88175,-0.8805 1.29676,-1.33276 -0.63655,-0.1235 -1.27716,-0.27076 -1.92202,-0.43686 -0.64484,-0.16607 -1.29392,-0.35099 -1.94743,-0.54981 z m 1.1717,3.65288 c -0.47723,0.4221 -0.96724,0.83738 -1.46734,1.24657 -0.50014,0.40918 -1.01038,0.81226 -1.52805,1.20995 0.73362,0.21526 1.47728,0.41713 2.23113,0.6007 0.75389,0.18358 1.51798,0.34885 2.29245,0.4909 -0.2905,-0.58503 -0.56129,-1.17357 -0.81508,-1.76509 -0.2538,-0.59153 -0.49059,-1.18604 -0.71311,-1.78303 z m -5.14741,-4.9733 c 0.15973,0.61507 0.32102,1.23091 0.4866,1.84699 0.16555,0.61607 0.33538,1.2324 0.51221,1.84844 0.51113,-0.38671 1.01655,-0.7775 1.51359,-1.1731 0.49704,-0.39559 0.9857,-0.79599 1.46331,-1.20191 -0.65354,-0.19882 -1.3115,-0.41155 -1.97408,-0.63327 -0.66254,-0.22171 -1.32969,-0.4524 -2.00163,-0.68715 z m 0.98377,3.74054 c -0.51129,0.38666 -1.02827,0.76923 -1.54827,1.14842 -0.52003,0.37919 -1.04307,0.75499 -1.56647,1.12814 0.69425,0.24908 1.39816,0.49463 2.11191,0.73172 0.71379,0.2371 1.43742,0.46574 2.17108,0.681 -0.21599,-0.61295 -0.41953,-1.22722 -0.61333,-1.84227 -0.1938,-0.61505 -0.37787,-1.2309 -0.55492,-1.84701 z m -5.02751,-5.18879 c 0.15544,0.61793 0.31084,1.2354 0.4677,1.85245 0.14115,0.55534 0.28348,1.11034 0.42807,1.66501 0.0161,0.0616 0.0322,0.12321 0.0483,0.18484 0.51743,-0.37199 1.03623,-0.74535 1.55373,-1.12078 0.51751,-0.37544 1.03371,-0.75297 1.54596,-1.13327 -0.67197,-0.23477 -1.34872,-0.4736 -2.03044,-0.71156 -0.0341,-0.0119 -0.0682,-0.0238 -0.10225,-0.0356 -0.63408,-0.23027 -1.27092,-0.46468 -1.91106,-0.70102 z m 0.92802,3.74677 c -0.0517,0.0372 -0.10343,0.0743 -0.15512,0.11151 -0.46576,0.33465 -0.93348,0.66815 -1.40221,1.00098 -0.52083,0.3698 -1.04289,0.73878 -1.56487,1.10761 0.64692,0.23694 1.29734,0.47363 1.95179,0.70786 0.0337,0.0126 0.0674,0.0251 0.10116,0.0376 0.67512,0.25125 1.35973,0.50388 2.054,0.75297 -0.17088,-0.62224 -0.33657,-1.24359 -0.49979,-1.86352 -0.16322,-0.61993 -0.32397,-1.23846 -0.48496,-1.85506 z m -5.01998,-5.24475 c 0.16795,0.61864 0.33182,1.23718 0.49308,1.85564 0.16124,0.61845 0.31987,1.23683 0.47739,1.85516 0.22766,-0.16162 1.33451,-0.94496 1.56218,-1.10657 0.52069,-0.36858 1.0409,-0.73711 1.55931,-1.10625 -0.67384,-0.2488 -1.35135,-0.49973 -2.03314,-0.75026 -0.68177,-0.25051 -1.36783,-0.5006 -2.05882,-0.74772 z m 0.95414,3.75523 c -0.52026,0.36938 -1.03967,0.73948 -1.5569,1.11096 -0.51726,0.37148 -1.03234,0.74435 -1.54392,1.11928 0.66801,0.24029 1.33862,0.48542 2.01247,0.73283 0.67388,0.24742 1.351,0.49713 2.03199,0.74655 -0.15901,-0.61825 -0.31616,-1.23649 -0.47294,-1.85476 -5.87852,-23.18212 5.40782,21.32727 -0.4707,-1.85486 z m -5.16438,-5.18167 c 0.19796,0.61278 0.38778,1.22583 0.57094,1.83915 0.18313,0.61333 0.3596,1.22692 0.5309,1.84082 0.5113,-0.38056 1.02687,-0.75818 1.54538,-1.13355 0.5185,-0.37536 1.03995,-0.74847 1.56302,-1.11998 -0.69102,-0.24713 -1.38696,-0.49128 -2.08847,-0.72987 -0.70148,-0.2386 -1.40853,-0.47164 -2.12177,-0.69657 z m 1.08654,3.72471 c -0.51113,0.38061 -1.01799,0.76414 -1.51924,1.15127 -0.50129,0.38713 -0.99698,0.77785 -1.48574,1.17284 0.66014,0.21065 1.32161,0.43126 1.98505,0.6593 0.66347,0.22804 1.32891,0.46349 1.99695,0.70379 -0.15646,-0.61522 -0.31512,-1.23009 -0.47746,-1.84461 -0.16235,-0.61453 -0.32837,-1.22871 -0.49956,-1.84259 z m -5.44553,-4.95651 c 0.24545,0.60038 0.47871,1.20137 0.70125,1.803 0.22251,0.60162 0.43431,1.20389 0.63689,1.80681 0.48987,-0.40572 0.98743,-0.8063 1.49134,-1.20241 0.50392,-0.39611 1.0142,-0.78776 1.52951,-1.1756 -0.71327,-0.22494 -1.43274,-0.44178 -2.15904,-0.64794 -0.72627,-0.20615 -1.45937,-0.40162 -2.19995,-0.58386 z m 1.32521,3.65519 c -0.48959,0.40579 -0.97148,0.81672 -1.44436,1.23346 -0.4729,0.41673 -0.93679,0.83926 -1.39033,1.26827 0.65735,0.16049 1.31477,0.33608 1.97288,0.52422 0.65814,0.18814 1.31698,0.38882 1.97715,0.59948 -0.17141,-0.60564 -0.34907,-1.21057 -0.53446,-1.8148 -0.1854,-0.60423 -0.37853,-1.20777 -0.58088,-1.81063 z m -5.87359,-4.54571 c 0.31065,0.57316 0.60742,1.14959 0.88934,1.7291 0.26456,0.54388 0.51605,1.09049 0.75367,1.6397 0.0155,0.036 0.0311,0.072 0.0465,0.10797 0.45604,-0.44484 0.92318,-0.88233 1.40009,-1.31315 0.47692,-0.43082 0.96362,-0.85496 1.45878,-1.2731 -0.74061,-0.18224 -1.48868,-0.35125 -2.24486,-0.50445 -0.0232,-0.005 -0.0465,-0.009 -0.0698,-0.0141 -0.74416,-0.14377 -1.48895,-0.26727 -2.23377,-0.372 z m 1.68031,3.52312 c -0.028,0.0274 -0.056,0.0547 -0.0839,0.0821 -0.42614,0.41837 -0.83974,0.8432 -1.24146,1.27404 -0.42808,0.45908 -0.84268,0.92498 -1.24459,1.39714 0.63644,0.0911 1.2684,0.19912 1.89529,0.32563 0.0202,0.004 0.0404,0.007 0.0607,0.0118 0.65789,0.12772 1.31521,0.27312 1.97259,0.43362 -0.20383,-0.58951 -0.41798,-1.17794 -0.64392,-1.76532 -0.22594,-0.58737 -0.46366,-1.1737 -0.71466,-1.759 z m -6.28623,-3.94439 c 0.3602,0.54151 0.70919,1.08642 1.04602,1.63455 0.3368,0.54814 0.66143,1.09951 0.97294,1.65396 0.40556,-0.48989 0.82339,-0.97414 1.25428,-1.45219 0.43089,-0.47807 0.87485,-0.94993 1.33268,-1.41505 -0.76848,-0.10806 -1.53698,-0.19611 -2.30487,-0.26579 -0.76786,-0.0697 -1.53508,-0.12095 -2.30105,-0.15548 z m 2.01473,3.33549 c -0.40516,0.48993 -0.79806,0.98549 -1.1795,1.48611 -0.38148,0.50063 -0.7515,1.00633 -1.11087,1.51655 0.67312,0.028 1.34275,0.071 2.00827,0.13037 0.66554,0.0594 1.32697,0.13526 1.98363,0.22921 -0.25474,-0.56612 -0.52455,-1.12947 -0.80846,-1.6899 -0.28391,-0.56042 -0.58192,-1.11791 -0.89307,-1.67234 z m -6.59019,-3.35431 c 0.39774,0.51251 0.78696,1.02855 1.16668,1.54798 0.3797,0.51942 0.7499,1.04221 1.10965,1.56823 0.36164,-0.52473 0.73353,-1.04558 1.11645,-1.562 0.38292,-0.51642 0.77688,-1.0284 1.18268,-1.53539 -0.766,-0.0345 -1.53073,-0.0523 -2.29354,-0.0549 -0.76278,-0.003 -1.52364,0.01 -2.28192,0.036 z m 2.27624,3.16348 c -0.3613,0.52475 -0.71238,1.05336 -1.05402,1.5853 -0.34168,0.53194 -0.67394,1.0672 -0.99756,1.60521 0.68438,-0.0249 1.3666,-0.0382 2.046,-0.0382 0.67942,-3e-5 1.35603,0.0131 2.02916,0.0412 -0.31377,-0.53828 -0.63992,-1.07364 -0.9775,-1.60594 -0.33759,-0.5323 -0.6866,-1.06153 -1.04608,-1.58755 z m -6.79003,-2.85737 c 0.42328,0.48618 0.8407,0.97604 1.25132,1.46941 0.41058,0.49338 0.81434,0.99027 1.21034,1.49052 0.32453,-0.54933 0.65728,-1.09654 0.99903,-1.64107 0.34175,-0.54452 0.69252,-1.08637 1.0531,-1.62497 -0.75832,0.0261 -1.51407,0.0657 -2.2666,0.11728 -0.7525,0.0516 -1.50178,0.11503 -2.24719,0.18883 z m 2.46487,3.00715 c -0.32426,0.54932 -0.64032,1.10075 -0.94898,1.65375 -0.30869,0.553 -0.60998,1.10757 -0.90468,1.66314 0.69046,-0.065 1.38006,-0.12156 2.06814,-0.16812 0.6881,-0.0466 1.37469,-0.0831 2.0591,-0.10804 -0.36079,-0.5131 -0.73129,-1.02314 -1.11054,-1.52998 -0.37925,-0.50684 -0.76725,-1.01047 -1.16304,-1.51075 z m -6.86777,-2.49405 c 0.43151,0.47319 0.86084,0.94767 1.28708,1.42378 0.42621,0.4761 0.84931,0.95383 1.26838,1.43351 0.29696,-0.56351 0.59832,-1.12609 0.90507,-1.68763 0.12577,-0.23022 0.25244,-0.46026 0.38008,-0.69013 0.18483,-0.33132 0.37221,-0.66223 0.56229,-0.99263 -0.21992,0.0217 -0.43949,0.0444 -0.65871,0.0679 -0.52007,0.0545 -1.03843,0.11229 -1.55514,0.17284 -0.73291,0.0859 -1.46252,0.17722 -2.18905,0.27229 z m 2.56095,2.90422 c -0.2968,0.5635 -0.58922,1.12792 -0.87823,1.69319 -0.28904,0.56528 -0.57468,1.13138 -0.85792,1.69821 0.70289,-0.0922 1.40366,-0.18006 2.10256,-0.26182 0.49272,-0.0577 0.98451,-0.11224 1.47544,-0.16319 0.20383,-0.0205 0.40761,-0.0405 0.61131,-0.0597 -0.23353,-0.28946 -0.46951,-0.57781 -0.70774,-0.865 -0.16632,-0.19921 -0.33354,-0.39801 -0.5016,-0.59642 -0.40993,-0.48396 -0.82485,-0.96561 -1.24382,-1.4453 z m -6.88497,-2.30346 c 0.43235,0.46853 0.86501,0.93713 1.29703,1.40617 0.43199,0.46903 0.86335,0.93849 1.29314,1.40871 0.28421,-0.57014 0.57015,-1.13992 0.85879,-1.70923 0.28865,-0.56931 0.58001,-1.13815 0.87506,-1.70641 -0.72656,0.0951 -1.45004,0.19384 -2.17065,0.29456 -0.72059,0.10072 -1.43831,0.20337 -2.15337,0.3062 z m 2.59672,2.86168 c -0.28413,0.57013 -0.56657,1.14063 -0.84828,1.7114 -0.28174,0.57077 -0.56277,1.14181 -0.84407,1.713 0.71218,-0.1025 1.42182,-0.2042 2.12915,-0.30333 0.70734,-0.0991 1.41238,-0.19568 2.1153,-0.28789 -0.41968,-0.47462 -0.84282,-0.94781 -1.26849,-1.41989 -0.42566,-0.47209 -0.85385,-0.94307 -1.28361,-1.41329 z m -6.85714,-2.25671 c 0.42376,0.47217 0.8503,0.94323 1.27867,1.41352 0.42833,0.47029 0.85851,0.9398 1.28957,1.40889 0.28264,-0.57097 0.56431,-1.14213 0.84601,-1.7134 0.28169,-0.57126 0.56343,-1.14262 0.84617,-1.71398 -0.71511,0.10284 -1.42755,0.20585 -2.13756,0.30726 -0.70999,0.10142 -1.41753,0.20124 -2.12286,0.29771 z m 2.57493,2.86919 c -0.28263,0.57096 -0.56625,1.14171 -0.85182,1.71217 -0.2856,0.57045 -0.57318,1.1406 -0.86371,1.71034 0.7232,-0.0987 1.44343,-0.20005 2.16091,-0.30241 0.71751,-0.10235 1.43226,-0.20567 2.14448,-0.30818 -0.43091,-0.46868 -0.86282,-0.93713 -1.29477,-1.40567 -0.43196,-0.46854 -0.86397,-0.93718 -1.29509,-1.40625 z m -6.78319,-2.34456 c 0.0607,0.0718 0.12156,0.1437 0.18245,0.21552 0.34671,0.41157 0.69712,0.82151 1.05064,1.23002 0.41525,0.47987 0.83479,0.95777 1.2577,1.43404 0.29222,-0.56597 0.58079,-1.1327 0.8667,-1.7001 0.28591,-0.56741 0.56917,-1.13547 0.85077,-1.70411 -0.70536,0.0965 -1.4085,0.18957 -2.10963,0.27754 -0.64897,0.0815 -1.29623,0.15847 -1.94195,0.22971 -0.0522,0.006 -0.10444,0.0116 -0.15668,0.0174 z m 2.49667,2.92647 c -0.29229,0.56596 -0.58824,1.13116 -0.88884,1.69548 -0.25593,0.48042 -0.51523,0.96019 -0.7785,1.43926 -0.0456,0.0836 -0.0914,0.16718 -0.13722,0.25073 0.0543,-0.006 0.10866,-0.0119 0.16299,-0.0179 0.68075,-0.0755 1.35861,-0.15633 2.03373,-0.24098 0.7294,-0.0915 1.4556,-0.18738 2.17883,-0.28605 -0.4327,-0.47108 -0.86393,-0.9431 -1.29273,-1.41642 -0.42882,-0.47333 -0.85522,-0.94795 -1.27826,-1.42419 z m -6.72074,-2.51615 c 0.39686,0.49322 0.79661,0.98519 1.19942,1.47582 0.40277,0.49065 0.80859,0.97997 1.21761,1.46793 0.30813,-0.55721 0.6129,-1.11531 0.91412,-1.67431 0.30123,-0.559 0.59892,-1.11892 0.89292,-1.67976 -0.70249,0.0775 -1.40577,0.15028 -2.10981,0.21858 -0.70401,0.0683 -1.40877,0.13211 -2.11426,0.19174 z m 2.42157,2.99077 c -0.30819,0.55722 -0.61976,1.11354 -0.93453,1.66901 -0.3148,0.55546 -0.63281,1.11006 -0.95386,1.66382 0.73028,-0.0614 1.46067,-0.12711 2.19117,-0.19734 0.73052,-0.0703 1.46114,-0.14501 2.19183,-0.22464 -0.42259,-0.48227 -0.84167,-0.96601 -1.25738,-1.45117 -0.41572,-0.48515 -0.82807,-0.97173 -1.23723,-1.45968 z m -6.66322,-2.68079 c 0.38683,0.50182 0.77613,1.00255 1.16808,1.50215 0.39192,0.49961 0.78646,0.99807 1.1838,1.49535 0.32104,-0.54966 0.63915,-1.1001 0.95416,-1.65133 0.31503,-0.55124 0.62694,-1.10328 0.93561,-1.65615 -0.70553,0.0596 -1.4118,0.1151 -2.11875,0.16667 -0.70694,0.0516 -1.41458,0.0992 -2.1229,0.14331 z m 2.35532,3.04461 c -0.3211,0.54965 -0.64512,1.09854 -0.97192,1.64666 -0.32682,0.54813 -0.65642,1.0955 -0.98862,1.64214 0.72968,-0.0456 1.45953,-0.0948 2.18953,-0.14799 0.73004,-0.0532 1.46022,-0.11037 2.19052,-0.1718 -0.40925,-0.49233 -0.8154,-0.98595 -1.2186,-1.48081 -0.4032,-0.49485 -0.80345,-0.99093 -1.20091,-1.4882 z m -6.61326,-2.82099 c 0.37839,0.50909 0.75883,1.01728 1.14151,1.52452 0.38265,0.50723 0.76752,1.01353 1.15476,1.51882 0.33216,-0.54312 0.66181,-1.08691 0.98881,-1.6314 0.327,-0.54448 0.65134,-1.08966 0.97286,-1.63556 -0.70834,0.0441 -1.41737,0.0846 -2.12705,0.12174 -0.70965,0.0372 -1.41995,0.071 -2.13089,0.10188 z m 2.29875,3.09051 c -0.33219,0.54312 -0.66687,1.08556 -1.0039,1.62737 -0.33704,0.54179 -0.67642,1.08294 -1.01797,1.62347 0.72886,-0.032 1.45796,-0.0671 2.18726,-0.10562 0.72933,-0.0385 1.45887,-0.0803 2.18858,-0.12594 -0.39751,-0.50108 -0.79233,-1.00325 -1.18459,-1.50649 -0.39228,-0.50323 -0.78202,-1.00751 -1.16938,-1.51279 z m -6.57171,-2.9393 c 0.37152,0.51505 0.74471,1.02938 1.1197,1.54294 0.37497,0.51356 0.75175,1.02635 1.1305,1.53834 0.34146,-0.53759 0.68086,-1.07574 1.01804,-1.61448 0.33719,-0.53874 0.67215,-1.07807 1.00472,-1.61801 -0.71095,0.0308 -1.42254,0.0587 -2.13472,0.0838 -0.71215,0.0251 -1.42491,0.0475 -2.13824,0.0674 z m 2.25188,3.12849 c -0.34149,0.53759 -0.68503,1.07462 -1.03048,1.6111 -0.34547,0.53649 -0.69283,1.07242 -1.04194,1.60784 0.72786,-0.0208 1.45599,-0.0442 2.18437,-0.0703 0.72843,-0.0261 1.4571,-0.0551 2.18601,-0.087 -0.38736,-0.5085 -0.77243,-1.01793 -1.15536,-1.52821 -0.38295,-0.5103 -0.76376,-1.02145 -1.1426,-1.53343 z m -6.53861,-3.03571 c 0.36626,0.51968 0.73377,1.03883 1.10267,1.5574 0.36888,0.51857 0.73916,1.03655 1.111,1.5539 0.34897,-0.53306 0.69631,-1.06659 1.04188,-1.60059 0.34557,-0.53401 0.68934,-1.0685 1.03118,-1.60349 -0.71335,0.02 -1.42729,0.0375 -2.14177,0.0529 -0.71445,0.0154 -1.42944,0.0286 -2.14496,0.04 z m 2.2147,3.15856 c -0.34898,0.53307 -0.69959,1.06568 -1.05164,1.59786 -0.3521,0.53217 -0.70565,1.06391 -1.06049,1.59523 0.72662,-0.0119 1.45358,-0.0257 2.18084,-0.0418 0.7273,-0.0161 1.4549,-0.0343 2.18278,-0.0552 -0.37878,-0.51461 -0.75569,-1.02996 -1.13089,-1.54599 -0.3752,-0.51603 -0.74868,-1.03275 -1.1206,-1.5501 z m -6.51393,-3.11025 c 0.36258,0.523 0.726,1.04565 1.09041,1.56791 0.36438,0.52225 0.72976,1.04411 1.09628,1.56552 0.35467,-0.52956 0.70817,-1.05947 1.06031,-1.58975 0.35215,-0.53029 0.70294,-1.06094 1.05223,-1.59199 -0.71554,0.0114 -1.43161,0.0209 -2.14817,0.0289 -0.71654,0.008 -1.43356,0.0143 -2.15106,0.0194 z m 2.18722,3.1807 c -0.35467,0.52957 -0.71054,1.05878 -1.06742,1.58765 -0.35691,0.52888 -0.71484,1.05743 -1.07363,1.58567 0.72519,-0.006 1.45076,-0.012 2.17668,-0.0205 0.72596,-0.008 1.45229,-0.0183 2.17895,-0.0303 -0.37181,-0.51941 -0.74217,-1.03937 -1.11121,-1.55982 -0.36904,-0.52045 -0.73678,-1.04141 -1.10337,-1.56282 z m -6.49768,-3.1629 c 0.3605,0.525 0.72142,1.04984 1.08292,1.57447 0.36148,0.52462 0.72353,1.04904 1.08633,1.57318 0.35857,-0.52706 0.7164,-1.05436 1.07333,-1.58193 0.35693,-0.52756 0.71294,-1.0554 1.06788,-1.58352 -0.71752,0.006 -1.43552,0.009 -2.15395,0.0119 -0.7184,0.003 -1.43725,0.005 -2.15651,0.006 z m 2.16943,3.19494 c -0.35856,0.52706 -0.71788,1.05388 -1.07778,1.58046 -0.35993,0.5266 -0.72044,1.05297 -1.08138,1.57914 0.72354,-9.2e-4 1.44751,-0.003 2.1719,-0.006 0.72441,-0.003 1.44924,-0.007 2.17446,-0.0123 -0.36643,-0.52289 -0.73181,-1.04613 -1.09629,-1.5697 -0.36448,-0.52356 -0.72806,-1.04744 -1.09091,-1.57159 z m -6.48986,-3.19367 c 0.36,0.52568 0.72002,1.05139 1.0802,1.57707 0.36016,0.52568 0.72048,1.05132 1.08114,1.57689 0.36068,-0.52557 0.72106,-1.05128 1.08096,-1.57714 0.3599,-0.52586 0.71933,-1.05189 1.07813,-1.57809 -0.7193,9.2e-4 -1.439,0.002 -2.1591,0.002 -0.72006,1.2e-4 -1.44052,-1.7e-4 -2.16133,-5.6e-4 z m 2.16134,3.20125 c -0.36066,0.52557 -0.72163,1.051 -1.08275,1.57632 -0.36114,0.52532 -0.72243,1.05051 -1.08371,1.57562 0.72167,7.7e-4 1.44384,9.2e-4 2.16647,0.002 0.72266,1.1e-4 1.44579,-2.5e-4 2.16935,-9.3e-4 -0.36263,-0.52504 -0.72462,-1.05026 -1.08613,-1.57561 -0.36151,-0.52535 -0.72254,-1.05084 -1.08323,-1.57641 z m -6.49048,-3.20257 c 0.36109,0.52506 0.72179,1.05032 1.08225,1.57573 0.36044,0.52542 0.72063,1.05099 1.08073,1.57666 0.361,-0.52509 0.72211,-1.05021 1.08319,-1.57539 0.36107,-0.52517 0.72212,-1.05039 1.08297,-1.57568 -0.72085,-4e-4 -1.44206,-9e-4 -2.16361,-9.3e-4 -0.72152,-3.1e-4 -1.44337,-4.4e-4 -2.16553,-1e-4 z m 2.16295,3.19966 c -0.36096,0.52508 -0.72178,1.05014 -1.08231,1.57519 -0.36056,0.52506 -0.72083,1.0501 -1.08064,1.57516 0.7196,3.4e-4 1.43975,9.3e-4 2.16041,0.002 0.7207,8.5e-4 1.44191,0.002 2.16361,0.003 -0.36043,-0.52588 -0.72063,-1.05176 -1.08076,-1.57758 -0.36012,-0.52582 -0.72017,-1.0516 -1.08031,-1.57727 z M 23.233213,176.71011 c -0.526578,0.35637 -1.052747,0.71453 -1.578602,1.07378 -0.525864,0.35921 -1.051414,0.71951 -1.576769,1.08019 0.525522,0.36047 1.051099,0.72052 1.576547,1.08083 0.525447,0.36031 1.050747,0.72088 1.575704,1.08239 5.55e-4,-0.72302 2.5e-4,-1.44437 3.42e-4,-2.16395 1.02e-4,-0.71954 6.11e-4,-1.43732 0.0028,-2.15324 z m -3.202646,2.15398 c -0.525512,-0.36045 -1.05096,-0.72132 -1.576121,-1.08331 -0.525161,-0.36201 -1.050044,-0.72513 -1.574417,-1.09004 -0.0019,0.72658 -0.0028,1.4513 -0.0019,2.17408 4.35e-4,0.72281 0.0019,1.44367 0.0019,2.16248 0.524957,-0.35941 1.049895,-0.71985 1.574945,-1.08062 0.52504,-0.36076 1.050192,-0.72186 1.575538,-1.08259 z m 3.245866,-6.42636 c -0.532141,0.34346 -1.063383,0.6906 -1.59382,1.04072 -0.530447,0.35009 -1.060088,0.70316 -1.589044,1.05851 0.521856,0.36571 1.044573,0.72922 1.56792,1.09118 0.523337,0.36197 1.047322,0.7224 1.571724,1.08197 0.0019,-0.71594 0.0065,-1.43002 0.01277,-2.14213 0.0065,-0.71209 0.01648,-1.4222 0.03045,-2.13025 z m -3.230139,2.09876 c -0.521865,-0.36575 -1.042869,-0.73372 -1.562818,-1.1046 -0.519949,-0.3709 -1.038843,-0.74471 -1.55645,-1.1221 -0.01509,0.73358 -0.02573,1.46551 -0.03314,2.19568 -0.0074,0.73021 -0.01157,1.45867 -0.01379,2.18527 0.526605,-0.3617 1.053691,-0.72254 1.58137,-1.08181 0.527669,-0.35928 1.05594,-0.71699 1.584896,-1.07244 z m 3.374194,-6.32159 c -0.542184,0.32277 -1.082979,0.65112 -1.622488,0.98435 -0.539509,0.33319 -1.077741,0.67126 -1.614778,1.01349 0.512562,0.37795 1.026754,0.75188 1.542361,1.12249 0.515608,0.3706 1.032623,0.73787 1.55085,1.1025 0.01388,-0.70808 0.03203,-1.4141 0.05563,-2.11795 0.0236,-0.70383 0.05267,-1.40549 0.0884,-2.10488 z m -3.284494,1.99624 c -0.512563,-0.37804 -1.023496,-0.76009 -1.532596,-1.14684 -0.50909,-0.38678 -1.016348,-0.77826 -1.52156,-1.17511 -0.03814,0.73979 -0.06933,1.47813 -0.09468,2.21491 -0.02536,0.73682 -0.04499,1.47208 -0.06017,2.20569 0.532742,-0.35622 1.066456,-0.70969 1.601253,-1.0597 0.534797,-0.35001 1.070668,-0.69656 1.607715,-1.03895 z m 3.594914,-6.1687 c -0.116405,0.0621 -0.23269,0.12439 -0.348836,0.1869 -0.44133,0.23606 -0.881494,0.47674 -1.320539,0.72168 -0.55307,0.30853 -1.104353,0.62382 -1.65398,0.94517 0.497631,0.39715 0.997668,0.7885 1.4999,1.17473 0.502222,0.38622 1.006638,0.76732 1.513035,1.14398 0.03582,-0.69943 0.07831,-1.39659 0.128837,-2.0914 0.04527,-0.62315 0.09706,-1.2444 0.156154,-1.86368 0.0083,-0.0725 0.01694,-0.14499 0.02546,-0.21738 z m -3.370463,1.85034 c -0.497631,-0.3973 -0.992846,-0.80042 -1.485459,-1.21002 -0.391047,-0.32519 -0.780447,-0.65446 -1.168097,-0.98817 -0.102196,-0.0855 -0.204438,-0.17121 -0.30668,-0.25731 -0.0056,0.0758 -0.01129,0.15139 -0.01675,0.22683 -0.06221,0.66816 -0.116849,1.3353 -0.164809,2.00135 -0.0535,0.74263 -0.09867,1.48391 -0.136835,2.22373 0.543378,-0.34297 1.08821,-0.68129 1.634606,-1.01426 0.546396,-0.33297 1.094365,-0.66059 1.644001,-0.98215 z m 3.903899,-5.9527 c -0.575712,0.2419 -1.151786,0.50236 -1.726517,0.77683 -0.574722,0.27444 -1.148102,0.56288 -1.718454,0.86076 0.483227,0.42486 0.969805,0.84044 1.456235,1.25012 0.48643,0.40966 0.972702,0.81342 1.4553,1.21465 0.08211,-0.70234 0.162708,-1.39856 0.249186,-2.08389 0.08646,-0.6853 0.178815,-1.35971 0.28425,-2.01847 z m -3.492366,1.63188 c -0.483228,-0.42512 -0.963067,-0.85956 -1.436,-1.3067 -0.472943,-0.44717 -0.938971,-0.90704 -1.394594,-1.38299 -0.134734,0.77687 -0.242363,1.54806 -0.330128,2.30881 -0.08776,0.76077 -0.155709,1.5111 -0.211047,2.2462 0.551302,-0.3175 1.109066,-0.63473 1.671596,-0.94714 0.562522,-0.31241 1.12982,-0.62 1.700173,-0.91818 z m 4.340509,-5.35845 c -0.588034,0.12124 -1.179742,0.27404 -1.773431,0.4538 -0.593671,0.17974 -1.189323,0.38644 -1.785253,0.61556 0.428556,0.47335 0.871063,0.92921 1.323983,1.37095 0.452929,0.44175 0.916291,0.86937 1.386558,1.28626 0.105445,-0.65878 0.224007,-1.30191 0.362944,-1.92461 0.138927,-0.62267 0.298247,-1.22491 0.485199,-1.80196 z m -3.604773,1.05838 c -0.428353,-0.47392 -0.842746,-0.96537 -1.239643,-1.47772 -0.396898,-0.51238 -0.776309,-1.04567 -1.134726,-1.60323 -0.272263,0.78051 -0.502879,1.56488 -0.699116,2.34834 -0.196245,0.7835 -0.358102,1.56609 -0.492845,2.34299 0.590357,-0.30096 1.18387,-0.58868 1.778819,-0.8586 0.594957,-0.26992 1.191359,-0.52204 1.787511,-0.75178 z m 5.115642,-4.17974 c -0.0037,-6e-4 -0.0083,-9.2e-4 -0.01222,-0.002 -0.597383,-0.0598 -1.201644,-0.0757 -1.811116,-0.0522 -0.613897,0.0236 -1.233089,0.0871 -1.855863,0.18608 0.31702,0.54511 0.65857,1.06453 1.021134,1.56162 0.362564,0.49709 0.746132,0.97187 1.147204,1.42771 0.18697,-0.57708 0.401581,-1.12895 0.651119,-1.65086 0.248612,-0.52 0.5319,-1.01025 0.857029,-1.46604 9.07e-4,-0.002 0.0019,-0.003 0.0028,-0.005 z m -3.721493,0.11196 c -0.316613,-0.546 -0.608686,-1.11773 -0.872692,-1.71858 -0.262071,-0.59653 -0.496492,-1.22175 -0.69981,-1.87897 -9.25e-4,-0.005 -0.0028,-0.01 -0.0037,-0.0148 -0.0019,0.003 -0.0037,0.006 -0.0056,0.008 -0.465834,0.7434 -0.875923,1.50009 -1.23745,2.26534 -0.36285,0.76807 -0.676779,1.54475 -0.94906,2.3253 0.630689,-0.22298 1.261211,-0.41975 1.889864,-0.58574 0.628652,-0.166 1.255435,-0.30121 1.878654,-0.40109 z m 5.834327,-2.18133 c -0.499852,-0.30365 -1.033252,-0.56948 -1.596495,-0.79087 -0.563225,-0.22141 -1.156276,-0.39837 -1.775459,-0.52429 0.106529,0.62283 0.265034,1.22133 0.475044,1.78795 0.210011,0.56661 0.471527,1.10133 0.784076,1.59658 0.251259,-0.41145 0.561614,-0.79216 0.918087,-1.13834 0.356463,-0.34616 0.759035,-0.65779 1.194747,-0.93103 z m -3.404603,-1.34885 c -0.105389,-0.62394 -0.158783,-1.27213 -0.159727,-1.937 -9.16e-4,-0.66491 0.05063,-1.3465 0.155099,-2.0372 -0.772884,0.50081 -1.501409,1.07809 -2.172587,1.72802 -0.671207,0.64994 -1.285076,1.37254 -1.828621,2.16396 0.709947,-0.10618 1.401222,-0.148 2.070095,-0.1321 0.668883,0.0159 1.315365,0.0895 1.935741,0.21432 z m 6.312806,0.20034 c -0.361703,-0.46317 -0.769014,-0.9055 -1.218232,-1.32039 -0.44918,-0.4149 -0.940266,-0.80236 -1.469528,-1.15577 -0.138223,0.62122 -0.225395,1.23893 -0.261988,1.84557 -0.03656,0.60663 -0.02259,1.20218 0.04156,1.7791 0.43573,-0.27326 0.904599,-0.50816 1.39364,-0.70085 0.489012,-0.19268 0.998196,-0.34318 1.514563,-0.44766 z m -2.705357,-2.52 c 0.139538,-0.62176 0.330146,-1.24696 0.572287,-1.86803 0.242179,-0.62107 0.535908,-1.23803 0.881634,-1.84327 -0.898444,0.17966 -1.778476,0.44343 -2.627118,0.78748 -0.84867,0.34407 -1.665959,0.76845 -2.43888,1.26928 0.668448,0.18987 1.306154,0.42709 1.909405,0.70505 0.603252,0.27796 1.17204,0.59666 1.702672,0.94949 z m 6.078653,2.38327 c -0.24539,-0.54999 -0.520523,-1.09252 -0.828286,-1.62534 -0.307736,-0.53284 -0.648092,-1.05596 -1.023949,-1.56714 -0.297071,0.46604 -0.567289,0.94146 -0.808301,1.42576 -0.03434,0.0714 -0.06794,0.1429 -0.100622,0.21459 -0.253564,0.55574 -0.457446,1.12121 -0.612138,1.68886 0.291508,-0.059 0.585312,-0.1033 0.879069,-0.13226 0.247066,-0.0281 0.495956,-0.0474 0.746428,-0.0581 0.575139,-0.0247 1.158655,-0.005 1.747799,0.0537 z m -1.853799,-3.23955 c 0.342106,-0.53507 0.719573,-1.05776 1.128838,-1.5673 0.409292,-0.50955 0.850373,-1.00594 1.319678,-1.48841 -0.840191,-0.0765 -1.692091,-0.10612 -2.552962,-0.083 -0.374912,0.01 -0.751519,0.0301 -1.129606,0.0606 -0.516608,0.0471 -1.029679,0.12174 -1.536881,0.22316 0.552755,0.42558 1.062707,0.88151 1.526143,1.36119 0.0598,0.0619 0.118812,0.12417 0.177047,0.18684 0.384141,0.4256 0.73942,0.86175 1.067743,1.30698 z m 5.434134,4.00809 c -0.143732,-0.59864 -0.309994,-1.1968 -0.501648,-1.79225 -0.191627,-0.59543 -0.408654,-1.18814 -0.653952,-1.77587 -0.459705,0.44075 -0.894001,0.89494 -1.299313,1.36179 -0.405312,0.46685 -0.781641,0.94638 -1.125422,1.43779 0.589172,0.0586 1.183972,0.15584 1.781623,0.28591 0.597633,0.13006 1.198126,0.2929 1.798712,0.48263 z m -1.145964,-3.6144 c 0.460483,-0.44063 0.94633,-0.86781 1.453986,-1.28077 0.507693,-0.41296 1.037186,-0.81169 1.584906,-1.19542 -0.78228,-0.24006 -1.581786,-0.44513 -2.39578,-0.60929 -0.81403,-0.16418 -1.642539,-0.28745 -2.482766,-0.36392 0.370922,0.55894 0.707771,1.12735 1.013414,1.703 0.305653,0.57565 0.5801,1.15853 0.82624,1.7464 z m 4.727836,5.03484 c -0.03518,-0.33243 -0.0748,-0.66533 -0.119349,-0.99885 -0.03795,-0.28156 -0.07952,-0.56422 -0.124913,-0.84778 -0.0989,-0.61832 -0.215981,-1.2409 -0.354103,-1.86547 -0.532862,0.35396 -1.050293,0.72242 -1.548739,1.10462 -0.498436,0.3822 -0.977886,0.77814 -1.434768,1.18704 0.600623,0.18974 1.201347,0.40637 1.799406,0.64397 0.436128,0.17328 0.870849,0.35772 1.30308,0.55102 0.159986,0.0733 0.31976,0.14847 0.479386,0.22545 z m -0.58061,-3.75612 c 0.533381,-0.35373 1.082147,-0.69293 1.642724,-1.01683 0.257091,-0.14854 0.516663,-0.29386 0.778383,-0.43589 0.309318,-0.1688 0.621904,-0.33385 0.937295,-0.49554 -0.190997,-0.0938 -0.383401,-0.18642 -0.577259,-0.27786 -0.520995,-0.25045 -1.0537,-0.48772 -1.597041,-0.70952 -0.745058,-0.30415 -1.510129,-0.57922 -2.292436,-0.81927 0.234587,0.6238 0.442321,1.25011 0.626079,1.87668 0.183758,0.62657 0.34355,1.25339 0.482255,1.87823 z m 4.119298,5.7079 c -0.02675,-0.62946 -0.05832,-1.25886 -0.09825,-1.88918 -0.03999,-0.6303 -0.08831,-1.26152 -0.148674,-1.89466 -0.568946,0.28428 -1.129597,0.57748 -1.67915,0.88201 -0.549553,0.30452 -1.088015,0.62039 -1.612611,0.95005 0.589671,0.28434 1.177297,0.59304 1.766044,0.92029 0.588718,0.32722 1.178556,0.67299 1.772644,1.03149 z m -0.224044,-3.82512 c 0.569223,-0.28415 1.146732,-0.55942 1.72972,-0.82826 0.583025,-0.26882 1.17154,-0.5312 1.762767,-0.78961 -0.641732,-0.3836 -1.296276,-0.76369 -1.96677,-1.13449 -0.670521,-0.37081 -1.357001,-0.73231 -2.062569,-1.07868 0.123023,0.64502 0.226895,1.28611 0.315187,1.92429 0.08831,0.63818 0.160977,1.27343 0.221665,1.90675 z m 3.864928,6.08244 c -0.03481,-0.64001 -0.06443,-1.27827 -0.09238,-1.91578 -0.02795,-0.63751 -0.05434,-1.27425 -0.08257,-1.91122 -0.584173,0.25553 -1.166939,0.51248 -1.745512,0.77329 -0.578573,0.26079 -1.152943,0.52544 -1.720352,0.79639 0.594124,0.35852 1.192497,0.72977 1.798276,1.10793 0.605751,0.37815 1.218908,0.76322 1.842608,1.14939 z m -0.150008,-3.86716 c 0.584201,-0.25554 1.169773,-0.50968 1.753955,-0.76488 0.584201,-0.25518 1.166995,-0.51142 1.745605,-0.77116 -0.603094,-0.37434 -1.212696,-0.7568 -1.831972,-1.14158 -0.619293,-0.3848 -1.248251,-0.77192 -1.890021,-1.15553 0.05054,0.64202 0.09201,1.28179 0.127847,1.92032 0.03592,0.63853 0.06619,1.2758 0.09459,1.91283 z m 4.045225,6.16113 c -0.07063,-0.50962 -0.131864,-1.01712 -0.184916,-1.52191 -0.01463,-0.13873 -0.0287,-0.27733 -0.04221,-0.41582 -0.06239,-0.63977 -0.113193,-1.27712 -0.155867,-1.91302 -0.578101,0.26837 -1.1617,0.53065 -1.747993,0.7893 -0.586293,0.25865 -1.175289,0.51366 -1.764202,0.76748 0.623728,0.38619 1.258008,0.77349 1.905971,1.15608 0.394083,0.23269 0.793239,0.46364 1.198163,0.69154 0.260867,0.1511 0.524586,0.29999 0.791082,0.44635 z m -0.358935,-3.89143 c 0.577878,-0.2685 1.15023,-0.54308 1.714289,-0.82622 0.122107,-0.0613 0.243816,-0.12297 0.365109,-0.18507 0.439044,-0.22745 0.873256,-0.46158 1.301201,-0.70241 -0.232107,-0.12243 -0.463806,-0.24692 -0.695024,-0.37316 -0.359009,-0.20263 -0.718555,-0.41174 -1.079351,-0.62599 -0.593227,-0.3523 -1.189832,-0.71853 -1.792954,-1.09289 0.02453,0.6341 0.04999,1.26763 0.07989,1.90158 0.0299,0.63397 0.06433,1.26835 0.106852,1.90416 z m 4.649475,5.89285 c -0.183267,-0.63414 -0.343967,-1.26899 -0.484838,-1.90332 -0.140834,-0.63431 -0.261839,-1.2681 -0.365776,-1.90013 -0.552579,0.32396 -1.117535,0.63605 -1.691859,0.93636 -0.574324,0.30031 -1.158016,0.58884 -1.748067,0.86567 0.680241,0.37357 1.378616,0.73066 2.09407,1.066 0.715427,0.33532 1.447932,0.64888 2.19647,0.93542 z m -0.830434,-3.84646 c 0.552108,-0.32419 1.091811,-0.66022 1.616102,-1.00821 0.524318,-0.34798 1.033215,-0.70791 1.52369,-1.07987 -0.598892,-0.23779 -1.197219,-0.49953 -1.793935,-0.77995 -0.596735,-0.28043 -1.19185,-0.57954 -1.784299,-0.89206 0.04628,0.61988 0.10414,1.24398 0.176306,1.87108 0.07211,0.62708 0.158626,1.25716 0.262136,1.88901 z m 5.505764,5.19937 c -0.302847,-0.5907 -0.575981,-1.18627 -0.82213,-1.78548 -0.246122,-0.5992 -0.46526,-1.20204 -0.660172,-1.80728 -0.49503,0.39915 -1.010637,0.78532 -1.543815,1.1586 -0.533177,0.37328 -1.083914,0.73367 -1.649213,1.08125 0.748566,0.28656 1.513174,0.54609 2.29276,0.77334 0.779558,0.22723 1.574094,0.42218 2.38257,0.57957 z m -1.468806,-3.63795 c 0.494336,-0.39931 0.968056,-0.81159 1.418171,-1.23692 0.450143,-0.42533 0.876672,-0.86371 1.276587,-1.31523 -0.596984,-0.12096 -1.195497,-0.27639 -1.79449,-0.46104 -0.599012,-0.18464 -1.198505,-0.3985 -1.797434,-0.63631 0.108453,0.60977 0.235606,1.2196 0.384215,1.82826 0.148619,0.60866 0.318687,1.21615 0.512951,1.82124 z m 6.446614,4.07243 c -0.245261,-0.29561 -0.483236,-0.59487 -0.713399,-0.89792 -0.170651,-0.22227 -0.33509,-0.44599 -0.49353,-0.67108 -0.377903,-0.53691 -0.721684,-1.08162 -1.034085,-1.6329 -0.402591,0.48929 -0.833961,0.96449 -1.291102,1.4257 -0.457132,0.46121 -0.940035,0.90842 -1.445692,1.34172 0.808514,0.1574 1.630959,0.27725 2.466299,0.35427 0.592736,0.0546 1.191961,0.0877 1.797295,0.0974 0.238975,-0.003 0.477053,-0.009 0.714214,-0.0172 z m -2.23696,-3.24871 c 0.401665,-0.4894 0.774532,-0.99287 1.115583,-1.51051 0.142991,-0.21701 0.28039,-0.4365 0.411977,-0.6585 0.188516,-0.30268 0.368627,-0.60744 0.540851,-0.91415 -0.180324,0.003 -0.360333,0.002 -0.540037,-9.3e-4 -0.417744,0.008 -0.837163,-0.005 -1.257869,-0.0376 -0.592912,-0.0468 -1.188397,-0.13323 -1.785401,-0.25419 0.197098,0.57248 0.420059,1.14087 0.671633,1.70392 0.251564,0.56306 0.531742,1.12078 0.843263,1.67195 z m 7.009746,2.71451 c -0.483977,-0.44298 -0.953429,-0.89407 -1.405702,-1.35398 -0.452244,-0.45991 -0.887298,-0.92864 -1.302506,-1.40691 -0.297386,0.55922 -0.616322,1.11376 -0.959512,1.66311 -0.343198,0.54936 -0.710649,1.09352 -1.105066,1.63198 0.816724,-0.0294 1.622711,-0.092 2.418135,-0.18266 0.795387,-0.0907 1.580212,-0.2095 2.354651,-0.35154 z m -2.713512,-2.80756 c 0.296729,-0.55914 0.571945,-1.12295 0.82836,-1.69091 0.256434,-0.56797 0.494067,-1.14009 0.715602,-1.71586 -0.636511,0.12351 -1.268959,0.22326 -1.897519,0.29434 -0.628588,0.0711 -1.253288,0.1135 -1.874266,0.12232 0.324435,0.51931 0.674076,1.02767 1.046276,1.52579 0.372191,0.49812 0.766932,0.98598 1.181547,1.46432 z m 7.237104,1.71596 c -0.517672,-0.39769 -1.027911,-0.80077 -1.52805,-1.20995 -0.500103,-0.40919 -0.990115,-0.82448 -1.467344,-1.24657 -0.222516,0.59699 -0.459316,1.1915 -0.713112,1.78303 -0.253795,0.59152 -0.524587,1.18006 -0.815086,1.76509 0.774476,-0.14205 1.538566,-0.30732 2.292455,-0.4909 0.753852,-0.18357 1.497502,-0.38545 2.231137,-0.6007 z m -3.006863,-2.50237 c 0.222082,-0.59691 0.429898,-1.1963 0.626181,-1.79763 0.196301,-0.60135 0.381059,-1.20466 0.556986,-1.8094 -0.653507,0.19882 -1.30259,0.38374 -1.947423,0.54981 -0.644862,0.1661 -1.285474,0.31336 -1.922023,0.43686 0.415014,0.45226 0.848152,0.89627 1.296749,1.33276 0.448606,0.43649 0.912672,0.86545 1.38953,1.2876 z m 7.28985,1.08965 c -0.523402,-0.37315 -1.046443,-0.74895 -1.566475,-1.12814 -0.519996,-0.37919 -1.036974,-0.76176 -1.548267,-1.14842 -0.177047,0.61611 -0.36112,1.23196 -0.554922,1.84701 -0.193802,0.61505 -0.397342,1.22932 -0.613323,1.84227 0.733653,-0.21526 1.45729,-0.4439 2.171069,-0.681 0.71376,-0.23709 1.417671,-0.48264 2.111918,-0.73172 z m -3.129776,-2.32167 c 0.176825,-0.61605 0.346652,-1.23237 0.512202,-1.84844 0.165577,-0.61608 0.326878,-1.23192 0.486596,-1.847 -0.671938,0.23476 -1.33908,0.46545 -2.001631,0.68716 -0.66257,0.22172 -1.320539,0.43445 -1.974074,0.63327 0.477608,0.40592 0.966269,0.80632 1.463307,1.20191 0.497048,0.3956 1.002464,0.78639 1.5136,1.1731 z m 7.236725,0.82319 c -0.521977,-0.36883 -1.044045,-0.73781 -1.564865,-1.10761 -0.468731,-0.33283 -0.936462,-0.66633 -1.402221,-1.00097 -0.05165,-0.0371 -0.103399,-0.0743 -0.155117,-0.11152 -0.160987,0.6166 -0.321732,1.23513 -0.484959,1.85506 -0.163217,0.61993 -0.328915,1.24128 -0.499787,1.86352 0.694274,-0.24909 1.378875,-0.50172 2.053997,-0.75296 0.03379,-0.0126 0.06748,-0.0251 0.101159,-0.0377 0.654452,-0.23423 1.304876,-0.47092 1.951793,-0.70786 z m -3.138236,-2.26457 c 0.01611,-0.0617 0.03221,-0.12324 0.04832,-0.18484 0.144583,-0.55467 0.286907,-1.10967 0.428056,-1.66501 0.156867,-0.61705 0.312271,-1.23452 0.467703,-1.85245 -0.64014,0.23634 -1.276976,0.47075 -1.911053,0.70102 -0.03406,0.0119 -0.06813,0.0238 -0.102251,0.0356 -0.681722,0.23797 -1.358474,0.47679 -2.030439,0.71156 0.512247,0.38031 1.028447,0.75783 1.545953,1.13327 0.517505,0.37544 1.036306,0.7488 1.553737,1.12078 z m 7.182692,0.78519 c -0.511572,-0.37493 -1.026652,-0.7478 -1.543917,-1.11928 -0.517227,-0.37149 -1.036639,-0.74158 -1.556903,-1.11096 -0.157515,0.61832 -0.313919,1.23661 -0.470693,1.85486 -0.156784,0.61827 -0.313938,1.23651 -0.472943,1.85476 0.680991,-0.24942 1.358103,-0.49913 2.031985,-0.74655 0.673853,-0.24741 1.344458,-0.49254 2.012471,-0.73283 z m -3.11714,-2.27467 c 0.157506,-0.61834 0.316141,-1.23671 0.477377,-1.85516 0.161264,-0.61846 0.325138,-1.237 0.493085,-1.85565 -0.690988,0.24713 -1.377051,0.49722 -2.05882,0.74773 -0.681796,0.25053 -1.359297,0.50146 -2.033142,0.75026 0.518413,0.36914 1.038621,0.73767 1.559311,1.10625 0.520689,0.36858 1.04186,0.73721 1.562189,1.10657 z m 7.099149,0.91158 c -0.488772,-0.39499 -0.984459,-0.78571 -1.485746,-1.17283 -0.50125,-0.38714 -1.00811,-0.77067 -1.519247,-1.15128 -0.171178,0.61388 -0.337209,1.22806 -0.499547,1.84259 -0.162347,0.61452 -0.32101,1.22939 -0.477469,1.84461 0.66804,-0.2403 1.33348,-0.47575 1.996947,-0.70379 0.66344,-0.22804 1.324917,-0.44866 1.985062,-0.6593 z m -3.020285,-2.36885 c 0.171298,-0.6139 0.347771,-1.22749 0.5309,-1.84082 0.183165,-0.61332 0.372977,-1.22637 0.570936,-1.83915 -0.713242,0.22493 -1.420282,0.45797 -2.121767,0.69657 -0.701505,0.23859 -1.397455,0.48274 -2.088471,0.72986 0.523069,0.37152 1.044518,0.74463 1.563023,1.11999 0.518505,0.37537 1.034076,0.75299 1.545379,1.13355 z m 6.970311,1.24514 c -0.453549,-0.42901 -0.917429,-0.85153 -1.390335,-1.26826 -0.472878,-0.41674 -0.954772,-0.82767 -1.444359,-1.23346 -0.202346,0.60286 -0.395481,1.2064 -0.580878,1.81063 -0.185396,0.60423 -0.363054,1.20916 -0.534454,1.8148 0.660163,-0.21066 1.319002,-0.41134 1.977147,-0.59948 0.658108,-0.18814 1.315521,-0.36373 1.972879,-0.52423 z m -2.847616,-2.5471 c 0.202568,-0.60292 0.414374,-1.20519 0.636882,-1.80681 0.222544,-0.60163 0.455799,-1.20262 0.701244,-1.803 -0.740568,0.18223 -1.473675,0.37771 -2.199941,0.58386 -0.726303,0.20616 -1.445775,0.423 -2.159044,0.64794 0.515311,0.38784 1.025596,0.77949 1.529512,1.1756 0.503916,0.39611 1.001473,0.79669 1.491347,1.20241 z m 6.776178,1.77613 c -0.40192,-0.47217 -0.816513,-0.93807 -1.244588,-1.39713 -0.401729,-0.43085 -0.815326,-0.85569 -1.241466,-1.27405 -0.02796,-0.0274 -0.05591,-0.0548 -0.08396,-0.0821 -0.251,0.58529 -0.488726,1.17162 -0.714667,1.759 -0.225933,0.58737 -0.440081,1.17581 -0.643918,1.76531 0.657386,-0.16049 1.314698,-0.30589 1.972593,-0.43362 0.02027,-0.004 0.04045,-0.007 0.06072,-0.0118 0.626885,-0.12652 1.258836,-0.23456 1.895286,-0.32563 z m -2.579188,-2.79969 c 0.01546,-0.036 0.03101,-0.072 0.04656,-0.10797 0.237615,-0.54921 0.489106,-1.09582 0.753667,-1.6397 0.281927,-0.57951 0.578693,-1.15594 0.889344,-1.72911 -0.744817,0.10473 -1.489606,0.22823 -2.233775,0.372 -0.02323,0.005 -0.04656,0.009 -0.0698,0.0141 -0.756175,0.1532 -1.50425,0.32221 -2.244855,0.50445 0.495159,0.41814 0.981857,0.84228 1.458771,1.2731 0.476923,0.43082 0.944062,0.86831 1.400093,1.31315 z m 6.571068,2.4401 c -0.35936,-0.51021 -0.72938,-1.01591 -1.11086,-1.51654 -0.38144,-0.50062 -0.77433,-0.99618 -1.17949,-1.48611 -0.31115,0.55443 -0.60917,1.11192 -0.89307,1.67234 -0.28391,0.56043 -0.55372,1.12378 -0.80846,1.6899 0.65665,-0.094 1.31807,-0.16982 1.98363,-0.22921 0.66552,-0.0594 1.33515,-0.10231 2.00825,-0.13038 z m -2.29458,-3.04963 c 0.3115,-0.55445 0.63613,-1.10582 0.97293,-1.65396 0.33683,-0.54813 0.68583,-1.09304 1.04603,-1.63455 -0.76597,0.0345 -1.5332,0.0858 -2.30105,0.15548 -0.76789,0.0697 -1.53639,0.15773 -2.304871,0.26578 0.457831,0.46513 0.901781,0.93699 1.332671,1.41506 0.4309,0.47805 0.84873,0.9623 1.25429,1.45219 z m 6.36975,3.04666 c -0.32362,-0.53802 -0.65587,-1.07327 -0.99755,-1.60521 -0.34166,-0.53194 -0.69273,-1.06055 -1.05404,-1.5853 -0.35947,0.52602 -0.70847,1.05525 -1.04606,1.58755 -0.33758,0.5323 -0.66374,1.06766 -0.97752,1.60593 0.67315,-0.028 1.34975,-0.0413 2.02918,-0.0412 0.67939,5e-5 1.36161,0.0133 2.04599,0.0382 z m -2.05167,-3.23778 c 0.35976,-0.52602 0.72996,-1.04881 1.10965,-1.56824 0.37973,-0.51942 0.76894,-1.03546 1.16669,-1.54798 -0.7583,-0.0261 -1.51915,-0.0387 -2.28192,-0.036 -0.76281,0.003 -1.52754,0.0204 -2.29354,0.0549 0.40579,0.50699 0.79976,1.01897 1.18268,1.53539 0.38292,0.51641 0.7548,1.03727 1.11644,1.56199 z m 6.17891,3.51394 c -0.29469,-0.55557 -0.59598,-1.11014 -0.90467,-1.66314 -0.30866,-0.553 -0.62473,-1.10443 -0.94899,-1.65375 -0.39578,0.50028 -0.78378,1.00391 -1.16303,1.51075 -0.37925,0.50684 -0.74975,1.01688 -1.11055,1.52998 0.68442,0.0249 1.371,0.0615 2.05911,0.10804 0.68807,0.0466 1.37766,0.10314 2.06813,0.16812 z m -1.85044,-3.36411 c 0.39599,-0.50025 0.79976,-0.99714 1.21034,-1.49052 0.41061,-0.49338 0.82804,-0.98323 1.25132,-1.46941 -0.74541,-0.0738 -1.49469,-0.13728 -2.24719,-0.18883 -0.75253,-0.0516 -1.50829,-0.0912 -2.2666,-0.11729 0.36057,0.53861 0.71134,1.08046 1.0531,1.62498 0.34175,0.54453 0.67449,1.09174 0.99903,1.64107 z m 6.03976,3.84879 c -0.28324,-0.56683 -0.56888,-1.13294 -0.85793,-1.69821 -0.28901,-0.56527 -0.58142,-1.1297 -0.87822,-1.69319 -0.41898,0.47969 -0.83389,0.96135 -1.24382,1.4453 -0.16806,0.19842 -0.33528,0.39721 -0.5016,0.59642 -0.23824,0.2872 -0.47421,0.57555 -0.70775,0.865 0.2037,0.0192 0.40748,0.0391 0.61132,0.0597 0.49093,0.0509 0.98272,0.10555 1.47544,0.16319 0.69889,0.0817 1.39967,0.16961 2.10256,0.26182 z m -1.73066,-3.43833 c 0.41906,-0.47968 0.84217,-0.95741 1.26837,-1.43351 0.42624,-0.47611 0.85558,-0.95059 1.28708,-1.42378 -0.72653,-0.0951 -1.45614,-0.18642 -2.18905,-0.27229 -0.51672,-0.0605 -1.03506,-0.11837 -1.55513,-0.17285 -0.21922,-0.0235 -0.43881,-0.0462 -0.65871,-0.0679 0.19008,0.33039 0.37746,0.66132 0.56229,0.99264 0.12764,0.22986 0.25431,0.4599 0.38007,0.69012 0.30676,0.56154 0.60812,1.12412 0.90508,1.68763 z m 5.97511,4.02955 c -0.2813,-0.57119 -0.56233,-1.14223 -0.84408,-1.713 -0.28171,-0.57077 -0.56414,-1.14127 -0.84827,-1.7114 -0.42977,0.47022 -0.85795,0.9412 -1.28361,1.41329 -0.42567,0.47208 -0.84881,0.94527 -1.26849,1.41989 0.70292,0.0922 1.40794,0.18877 2.1153,0.28789 0.70732,0.0991 1.41697,0.20083 2.12915,0.30333 z m -1.6858,-3.4712 c 0.42978,-0.47023 0.86114,-0.93968 1.29313,-1.40871 0.43203,-0.46904 0.86469,-0.93764 1.29704,-1.40617 -0.71506,-0.10283 -1.43279,-0.20548 -2.15337,-0.3062 -0.72062,-0.10072 -1.4441,-0.19949 -2.17066,-0.29456 0.29506,0.56826 0.58642,1.1371 0.87506,1.70641 0.28865,0.56931 0.57458,1.13908 0.8588,1.70923 z m 5.99119,4.08179 c -0.29054,-0.56974 -0.57811,-1.13989 -0.86371,-1.71034 -0.28558,-0.57046 -0.56919,-1.14121 -0.85182,-1.71217 -0.43113,0.46907 -0.86314,0.93771 -1.29509,1.40625 -0.43196,0.46854 -0.86386,0.93699 -1.29477,1.40567 0.71222,0.10251 1.42697,0.20583 2.14448,0.30818 0.71747,0.10235 1.43771,0.20374 2.16091,0.30241 z m -1.70885,-3.4693 c 0.43107,-0.46908 0.86124,-0.9386 1.28958,-1.40888 0.42837,-0.4703 0.8549,-0.94135 1.27867,-1.41353 -0.70533,-0.0965 -1.41288,-0.19628 -2.12286,-0.2977 -0.71001,-0.10141 -1.42247,-0.20442 -2.13756,-0.30726 0.28274,0.57136 0.56447,1.14272 0.84617,1.71398 0.2817,0.57127 0.56336,1.14243 0.846,1.71339 z m 6.0844,4.01417 c -0.0458,-0.0836 -0.0915,-0.16713 -0.13722,-0.25072 -0.26328,-0.47908 -0.52258,-0.95885 -0.7785,-1.43927 -0.30061,-0.56432 -0.59655,-1.12952 -0.88884,-1.69549 -0.42305,0.47625 -0.84944,0.95087 -1.27826,1.42419 -0.4288,0.47332 -0.86004,0.94535 -1.29273,1.41642 0.72323,0.0987 1.44943,0.19461 2.17883,0.28606 0.67512,0.0846 1.35297,0.16543 2.03373,0.24097 0.0543,0.006 0.10866,0.0119 0.16299,0.0179 z m -1.79869,-3.43236 c 0.42291,-0.47627 0.84246,-0.95417 1.25771,-1.43404 0.35352,-0.40851 0.70393,-0.81845 1.05063,-1.23003 0.0609,-0.0718 0.12171,-0.14364 0.18245,-0.21551 -0.0522,-0.006 -0.10446,-0.0116 -0.15668,-0.0174 -0.64571,-0.0713 -1.29297,-0.14827 -1.94194,-0.2297 -0.70113,-0.0879 -1.40428,-0.18109 -2.10963,-0.27755 0.28159,0.56864 0.56485,1.1367 0.85076,1.70411 0.28592,0.5674 0.57449,1.13414 0.8667,1.7001 z m 6.18169,3.85434 c -0.32106,-0.55376 -0.63906,-1.10836 -0.95387,-1.66382 -0.31477,-0.55547 -0.62633,-1.1118 -0.93453,-1.66901 -0.40915,0.48795 -0.82151,0.97453 -1.23722,1.45968 -0.41572,0.48516 -0.8348,0.9689 -1.25738,1.45117 0.73069,0.0796 1.4613,0.15441 2.19183,0.22464 0.7305,0.0703 1.46089,0.13592 2.19117,0.19734 z m -1.88386,-3.37985 c 0.40902,-0.48796 0.81484,-0.97728 1.21762,-1.46793 0.4028,-0.49063 0.80256,-0.9826 1.19942,-1.47582 -0.70549,-0.0596 -1.41026,-0.12345 -2.11427,-0.19174 -0.70404,-0.0683 -1.40731,-0.14106 -2.10981,-0.21858 0.294,0.56084 0.5917,1.12075 0.89292,1.67976 0.30123,0.559 0.60599,1.1171 0.91412,1.67431 z m 6.26391,3.69963 c -0.3322,-0.54663 -0.6618,-1.094 -0.98862,-1.64213 -0.3268,-0.54812 -0.65083,-1.09701 -0.97192,-1.64666 -0.39746,0.49727 -0.79771,0.99335 -1.20091,1.4882 -0.4032,0.49486 -0.80935,0.98848 -1.2186,1.48081 0.7303,0.0615 1.46048,0.1186 2.19051,0.1718 0.73001,0.0532 1.45986,0.10243 2.18954,0.14798 z m -1.95711,-3.3359 c 0.39735,-0.49728 0.79189,-0.99575 1.1838,-1.49535 0.39195,-0.4996 0.78125,-1.00033 1.16809,-1.50215 -0.70832,-0.0441 -1.41596,-0.0917 -2.1229,-0.14331 -0.70696,-0.0516 -1.41322,-0.10703 -2.11875,-0.16667 0.30866,0.55286 0.62058,1.10491 0.93559,1.65614 0.31502,0.55124 0.63313,1.10168 0.95417,1.65134 z m 6.33295,3.56747 c -0.34155,-0.54053 -0.68093,-1.08168 -1.01798,-1.62347 -0.33702,-0.54181 -0.6717,-1.08425 -1.0039,-1.62737 -0.38736,0.50528 -0.77709,1.00956 -1.16937,1.51279 -0.39227,0.50323 -0.78708,1.00541 -1.18459,1.50648 0.72971,0.0455 1.45924,0.0875 2.18857,0.12594 0.72931,0.0385 1.4584,0.0736 2.18727,0.10563 z m -2.0194,-3.29801 c 0.38725,-0.50529 0.77212,-1.01159 1.15476,-1.51883 0.38268,-0.50723 0.76313,-1.01542 1.14151,-1.52451 -0.71093,-0.0308 -1.42123,-0.0647 -2.13088,-0.10188 -0.70968,-0.0372 -1.41871,-0.0777 -2.12705,-0.12174 0.32152,0.5459 0.64586,1.09108 0.97286,1.63556 0.327,0.54449 0.65665,1.08828 0.9888,1.6314 z m 6.38977,3.4553 c -0.3491,-0.53542 -0.69646,-1.07136 -1.04194,-1.60784 -0.34544,-0.53648 -0.68898,-1.07351 -1.03047,-1.6111 -0.37884,0.51198 -0.75966,1.02313 -1.1426,1.53343 -0.38294,0.51028 -0.768,1.01971 -1.15536,1.52822 0.72891,0.032 1.45758,0.0609 2.18599,0.087 0.72839,0.0261 1.45653,0.0494 2.18438,0.0703 z m -2.07073,-3.26615 c 0.37874,-0.51199 0.75553,-1.02478 1.1305,-1.53834 0.37499,-0.51357 0.74817,-1.0279 1.1197,-1.54294 -0.71334,-0.0199 -1.42609,-0.0423 -2.13824,-0.0674 -0.71218,-0.0251 -1.42377,-0.053 -2.13473,-0.0838 0.33258,0.53993 0.66754,1.07926 1.00472,1.61801 0.33718,0.53874 0.67658,1.07688 1.01805,1.61448 z m 6.43436,3.36315 c -0.35485,-0.53132 -0.70839,-1.06306 -1.06049,-1.59524 -0.35206,-0.53217 -0.70266,-1.06478 -1.05164,-1.59785 -0.37193,0.51735 -0.7454,1.03406 -1.1206,1.5501 -0.3752,0.51603 -0.75211,1.03138 -1.1309,1.54599 0.72788,0.0208 1.45549,0.0391 2.18278,0.0552 0.72727,0.0161 1.45423,0.0299 2.18085,0.0418 z m -2.11111,-3.24035 c 0.37184,-0.51735 0.74213,-1.03533 1.111,-1.5539 0.36891,-0.51857 0.73642,-1.03772 1.10267,-1.5574 -0.71552,-0.0114 -1.43051,-0.0246 -2.14496,-0.04 -0.71447,-0.0154 -1.42841,-0.0329 -2.14176,-0.0528 0.34183,0.53499 0.68561,1.06947 1.03118,1.60348 0.34555,0.534 0.69291,1.06753 1.04187,1.6006 z m 6.46673,3.29103 c -0.35878,-0.52824 -0.71672,-1.05679 -1.07363,-1.58567 -0.35688,-0.52887 -0.71274,-1.05808 -1.06742,-1.58765 -0.36659,0.52141 -0.73432,1.04237 -1.10337,1.56282 -0.36904,0.52046 -0.73939,1.04042 -1.1112,1.55982 0.72665,0.0119 1.45297,0.0219 2.17894,0.0303 0.72593,0.008 1.4515,0.0151 2.17668,0.0205 z m -2.14051,-3.22059 c 0.36652,-0.52141 0.7319,-1.04327 1.09627,-1.56552 0.36441,-0.52226 0.72783,-1.04491 1.09041,-1.56791 -0.71749,-0.006 -1.43452,-0.0115 -2.15105,-0.0194 -0.71656,-0.008 -1.43263,-0.0175 -2.14818,-0.0289 0.34929,0.53105 0.70009,1.0617 1.05223,1.59199 0.35215,0.53028 0.70564,1.06019 1.06032,1.58975 z m 6.48687,3.23891 c -0.36093,-0.52617 -0.72144,-1.05254 -1.08138,-1.57914 -0.35989,-0.52658 -0.71921,-1.0534 -1.07778,-1.58046 -0.36284,0.52414 -0.72644,1.04803 -1.09091,1.57159 -0.36448,0.52356 -0.72985,1.04681 -1.09629,1.56969 0.72522,0.006 1.45005,0.009 2.17447,0.0123 0.72439,0.003 1.44836,0.005 2.17189,0.006 z m -2.15897,-3.20689 c 0.3628,-0.52415 0.72485,-1.04856 1.08632,-1.57318 0.36151,-0.52463 0.72243,-1.04947 1.08293,-1.57447 -0.71926,-9.3e-4 -1.43811,-0.003 -2.15651,-0.006 -0.71844,-0.003 -1.43644,-0.006 -2.15396,-0.0119 0.35494,0.52813 0.71096,1.05596 1.06789,1.58353 0.35692,0.52757 0.71475,1.05487 1.07333,1.58193 z m 6.4948,3.20681 c -0.36128,-0.52511 -0.72257,-1.0503 -1.08372,-1.57562 -0.36111,-0.52532 -0.72208,-1.05075 -1.08274,-1.57632 -0.3607,0.52557 -0.72172,1.05105 -1.08323,1.57641 -0.36151,0.52535 -0.72351,1.05057 -1.08614,1.57561 0.72357,9.3e-4 1.44669,0.002 2.16936,9.3e-4 0.72263,-1e-4 1.44479,-7e-4 2.16647,-0.002 z m -2.16646,-3.19923 c 0.36065,-0.52557 0.72098,-1.05121 1.08114,-1.57689 0.36018,-0.52568 0.7202,-1.05139 1.0802,-1.57708 -0.72082,3.9e-4 -1.44127,6.8e-4 -2.16134,5.6e-4 -0.72009,-1.1e-4 -1.43981,-6.2e-4 -2.15909,-0.002 0.35879,0.52621 0.71822,1.05223 1.07813,1.57809 0.35989,0.52587 0.72027,1.05157 1.08096,1.57714 z m 6.49048,3.19473 c -0.35981,-0.52506 -0.72009,-1.0501 -1.08065,-1.57516 -0.36053,-0.52505 -0.72135,-1.05011 -1.0823,-1.57519 -0.36014,0.52567 -0.72019,1.05145 -1.08031,1.57727 -0.36013,0.52582 -0.72034,1.0517 -1.08076,1.57758 0.7217,-7.7e-4 1.44291,-0.002 2.16361,-0.003 0.72066,-8.4e-4 1.44081,-0.002 2.16041,-0.002 z m -2.16299,-3.19762 c 0.3601,-0.52567 0.7203,-1.05124 1.08073,-1.57666 0.36047,-0.52541 0.72116,-1.05067 1.08226,-1.57573 -0.72216,-3.4e-4 -1.44402,-2.1e-4 -2.16553,1e-4 -0.72155,3.2e-4 -1.44276,8.2e-4 -2.16361,9.3e-4 0.36085,0.52529 0.7219,1.05051 1.08297,1.57568 0.36108,0.52518 0.72219,1.0503 1.08318,1.57539 z"
       id="path31"
       inkscape:export-filename="..\src\border-top.svg"
       inkscape:export-xdpi="96"
       inkscape:export-ydpi="96" />
  </g>
</svg>
